<svg xmlns="http://www.w3.org/2000/svg" width="1983.398" stroke-miterlimit="10" font-weight="400" height="1029.518" font-size="12" font-family="Dialog" color-interpolation="auto" stroke="#000" stroke-linecap="square"><g transform="translate(-101.75 -109.733)"><defs><clipPath id="a"><path d="M0 0h2190v1240H0z"/></clipPath><clipPath id="b"><path d="M-94-636.928h2190v1240H-94z"/></clipPath><clipPath id="c"><path d="M-828.63-498.485h2190v1240h-2190z"/></clipPath><clipPath id="d"><path d="M-828.63-221.598h2190v1240h-2190z"/></clipPath><clipPath id="e"><path d="M-1065.429-83.155h2190v1240h-2190z"/></clipPath><clipPath id="f"><path d="M-1065.429-913.814h2190v1240h-2190z"/></clipPath><clipPath id="g"><path d="M-1308.213-360.041h2190v1240h-2190z"/></clipPath><clipPath id="h"><path d="M-1308.212-498.485h2190v1240h-2190z"/></clipPath></defs><path d="M237.092 666.977l160.531-92.683a5.993 5.993 0 1 1 5.993 10.38l-160.53 92.683a5.993 5.993 0 0 1-5.994-10.38z" clip-path="url(#a)" stroke="none" text-rendering="geometricPrecision"/><path d="M403.616 574.294l239.79 138.444a5.993 5.993 0 1 1-5.992 10.38L397.623 584.675a5.993 5.993 0 1 1 5.993-10.38z" clip-path="url(#a)" stroke="none" text-rendering="geometricPrecision"/><path d="M637.414 712.738L815.376 609.99a5.993 5.993 0 1 1 5.994 10.38L643.407 723.118a5.993 5.993 0 1 1-5.993-10.38zM874.208 492.631v-103.18a5.993 5.993 0 0 1 11.986 0v103.18a5.993 5.993 0 0 1-11.986 0zM930.787 237.637a5.993 5.993 0 1 0 5.993 10.38l99.972-57.718a5.993 5.993 0 0 0-5.994-10.38zm24.972 43.253a5.993 5.993 0 1 0 5.993 10.38l99.971-57.718a5.993 5.993 0 1 0-5.993-10.38zM945.025 609.99l177.963 102.748a5.993 5.993 0 1 1-5.993 10.38L939.032 620.371a5.993 5.993 0 0 1 5.993-10.38z" clip-path="url(#a)" stroke="none" text-rendering="geometricPrecision"/><path d="M1150.956 703.51a5.993 5.993 0 0 0-11.986 0v203.074a5.993 5.993 0 1 0 11.986 0zm-49.943 0a5.993 5.993 0 1 0-11.986 0v203.074a5.993 5.993 0 0 0 11.986 0z" clip-path="url(#a)" stroke="none" text-rendering="geometricPrecision"/><path d="M1116.995 712.738l177.963-102.747a5.993 5.993 0 1 1 5.993 10.38l-177.963 102.747a5.993 5.993 0 1 1-5.993-10.38zM1424.606 609.99l177.963 102.748a5.993 5.993 0 0 1-5.993 10.38l-177.963-102.747a5.993 5.993 0 1 1 5.993-10.38z" clip-path="url(#a)" stroke="none" text-rendering="geometricPrecision"/><path d="M1596.576 712.738l239.79-138.444a5.993 5.993 0 1 1 5.994 10.38l-239.79 138.444a5.993 5.993 0 1 1-5.994-10.38z" clip-path="url(#a)" stroke="none" text-rendering="geometricPrecision"/><path d="M1842.36 574.294l239.79 138.444a5.993 5.993 0 1 1-5.993 10.38l-239.79-138.443a5.993 5.993 0 1 1 5.993-10.38z" clip-path="url(#a)" stroke="none" text-rendering="geometricPrecision"/><path d="M2085.147 717.928v276.886a5.993 5.993 0 0 1-11.986 0V717.928a5.993 5.993 0 1 1 11.986 0z" clip-path="url(#a)" stroke="none" text-rendering="geometricPrecision"/><path d="M2082.15 1000.005l-239.79 138.443a5.993 5.993 0 1 1-5.993-10.38l239.79-138.444a5.993 5.993 0 0 1 5.994 10.38z" clip-path="url(#a)" stroke="none" text-rendering="geometricPrecision"/><path d="M1836.367 1138.448l-239.79-138.444a5.993 5.993 0 1 1 5.992-10.38l239.791 138.443a5.993 5.993 0 0 1-5.993 10.38z" clip-path="url(#a)" stroke="none" text-rendering="geometricPrecision"/><path d="M1605.566 717.928v276.886a5.993 5.993 0 1 1-11.986 0V717.928a5.993 5.993 0 0 1 11.986 0z" clip-path="url(#a)" stroke="none" text-rendering="geometricPrecision"/><text y="129" clip-path="url(#b)" stroke="none" transform="translate(94 636.928)" font-size="138" font-family="sans-serif" text-rendering="geometricPrecision">Cl</text><text y="129" clip-path="url(#c)" stroke="none" transform="translate(828.63 498.485)" font-size="138" font-family="sans-serif" text-rendering="geometricPrecision">N</text><text y="129" clip-path="url(#d)" stroke="none" transform="translate(828.63 221.598)" font-size="138" font-family="sans-serif" text-rendering="geometricPrecision">N</text><text y="129" clip-path="url(#e)" stroke="none" transform="translate(1065.429 83.155)" font-size="138" font-family="sans-serif" text-rendering="geometricPrecision">O</text><text y="129" clip-path="url(#f)" stroke="none" transform="translate(1065.429 913.814)" font-size="138" font-family="sans-serif" text-rendering="geometricPrecision">O</text><text y="129" clip-path="url(#g)" stroke="none" transform="translate(1308.213 360.041)" font-size="138" font-family="sans-serif" text-rendering="geometricPrecision">H</text><text y="129" clip-path="url(#h)" stroke="none" transform="translate(1308.212 498.485)" font-size="138" font-family="sans-serif" text-rendering="geometricPrecision">N</text></g></svg>