<svg xmlns="http://www.w3.org/2000/svg" width="1750mm" height="1880mm" viewBox="0 0 1750 1880"><path fill="none" stroke="#000" stroke-width="9.889" d="M4.945 4.945h1740.111v1870.111H4.945z"/><path fill="red" d="M70 350h210v210H70z"/><text y="-1196.168" x="314.112" style="line-height:0" font-weight="400" font-size="113.663" font-family="sans-serif" letter-spacing="0" word-spacing="0" stroke-width=".222" transform="translate(5 1653)"><tspan y="-1166.643" x="314.112">A: cow tubulin alpha-1B</tspan></text><path fill="#a6522b" d="M70 600h210v210H70z"/><text y="-935.155" x="303.845" style="line-height:0" font-weight="400" font-size="113.663" font-family="sans-serif" letter-spacing="0" word-spacing="0" stroke-width=".406" transform="translate(5 1653)"><tspan y="-905.63" x="303.845">B: cow tubulin beta-2B</tspan></text><path fill="#0f0" d="M70 850h210v210H70z"/><text y="-666.643" x="308.618" style="line-height:0" font-weight="400" font-size="113.663" font-family="sans-serif" letter-spacing="0" word-spacing="0" stroke-width=".238" transform="translate(5 1653)"><tspan y="-666.643" x="308.618">C: cow tubulin alpha-1B</tspan></text><path fill="#0ff" d="M70 1100h210v210H70z"/><text y="-405.629" x="303.845" style="line-height:0" font-weight="400" font-size="113.663" font-family="sans-serif" letter-spacing="0" word-spacing="0" stroke-width=".222" transform="translate(5 1653)"><tspan y="-405.629" x="303.845">D: cow tubulin beta-2B</tspan></text><path fill="#00f" d="M70 1350h210v210H70z"/><text y="-155.629" x="303.845" style="line-height:0" font-weight="400" font-size="113.663" font-family="sans-serif" letter-spacing="0" word-spacing="0" stroke-width=".222" transform="translate(5 1653)"><tspan y="-155.629" x="303.845">E: brown rat stathmin-4</tspan></text><path fill="#ff80ff" d="M70 1600h210v210H70z"/><text y="23.684" x="311.948" style="line-height:1.04999995" font-weight="400" font-size="113.663" font-family="sans-serif" letter-spacing="0" word-spacing="0" stroke-width=".222" transform="translate(5 1653)"><tspan y="23.684" x="311.948">F: Red junglefowl tubulin</tspan><tspan y="143.03" x="311.948">tyrosine ligase</tspan></text><text y="-1422.228" x="53.114" style="line-height:1.25" font-weight="400" font-size="211.667" font-family="sans-serif" letter-spacing="0" word-spacing="0" stroke-width=".265" transform="translate(5 1653)"><tspan y="-1422.228" x="53.114">Chain Legend</tspan></text></svg>