<svg xmlns="http://www.w3.org/2000/svg" width="1711.132" stroke-miterlimit="10" font-weight="400" height="1559.786" font-size="12" font-family="Dialog" color-interpolation="auto" stroke="#000" stroke-linecap="square"><g transform="translate(-19.925 -18.506)"><defs><clipPath id="a"><path d="M0 0h1750v1597H0z"/></clipPath><clipPath id="b"><path d="M-1509.308-715.023h1750v1597h-1750z"/></clipPath><clipPath id="c"><path d="M-1314.105-1070.343h1750v1597h-1750z"/></clipPath><clipPath id="d"><path d="M-692.903-1093.367h1750v1597h-1750z"/></clipPath><clipPath id="e"><path d="M-694.55-766.702h1750v1597h-1750z"/></clipPath><clipPath id="f"><path d="M-676.721-956.126h1750v1597h-1750z"/></clipPath><clipPath id="g"><path d="M-1122.594-726.877h1750v1597h-1750z"/></clipPath><clipPath id="h"><path d="M-745.959-388.888h1750v1597h-1750z"/></clipPath><clipPath id="i"><path d="M-427.959-742.581h1750v1597h-1750z"/></clipPath><clipPath id="j"><path d="M-273.99-261.622h1750v1597h-1750z"/></clipPath><clipPath id="k"><path d="M-14.231-361.02h1750v1597h-1750z"/></clipPath><clipPath id="l"><path d="M-612.168-239.971h1750v1597h-1750z"/></clipPath><clipPath id="m"><path d="M-369.52-110.186h1750v1597h-1750z"/></clipPath><clipPath id="n"><path d="M-615.733-106.148h1750v1597h-1750z"/></clipPath></defs><path d="M1730.249 835.627l-97.177 103.774a2.992 2.992 0 0 1-4.368-4.09l97.177-103.774a2.992 2.992 0 0 1 4.368 4.09z" clip-path="url(#a)" stroke="none" text-rendering="geometricPrecision"/><path d="M1492.43 905.085l-.68 2.913 130.696 42.75 11.807-12.608 11.806-12.608-152.95-23.361z" clip-path="url(#a)" stroke="none" text-rendering="geometricPrecision"/><path d="M1491.05 898.011l-1.384 5.88 5.609 2.175 2.94-5.278zm3.694-15.681l-1.385 5.88 9.755 3.781 2.94-5.277zm3.693-15.681l-1.385 5.88 13.902 5.388 2.94-5.278zm3.693-15.682l-1.384 5.88 18.048 6.996 2.94-5.278zm3.694-15.681l-1.385 5.88 22.194 8.603 2.94-5.278zm3.693-15.682l-1.385 5.88 26.34 10.21 2.94-5.278-13.947-5.406z" clip-path="url(#a)" stroke="none" text-rendering="geometricPrecision"/><path d="M1490.967 907.695l-128.615-72.032a2.992 2.992 0 1 1 2.923-5.22l128.616 72.031a2.992 2.992 0 1 1-2.924 5.22z" clip-path="url(#a)" stroke="none" text-rendering="geometricPrecision"/><path d="M1227.643 897.929l1.287 2.7 154.178-60.2-15.986-8.953-15.987-8.953-124.779 72.705z" clip-path="url(#a)" stroke="none" text-rendering="geometricPrecision"/><path d="M1230.412 896.797l49.42 120.933a2.992 2.992 0 0 1-5.54 2.264l-49.419-120.933a2.992 2.992 0 0 1 5.54-2.264z" clip-path="url(#a)" stroke="none" text-rendering="geometricPrecision"/><path d="M1279.558 1017.212l42.16 63.776a2.992 2.992 0 0 1-4.992 3.3l-42.16-63.776a2.992 2.992 0 0 1 4.992-3.3zM1386.446 1102.63l91.49-53.29a2.992 2.992 0 1 1 3.012 5.17l-91.49 53.29a2.992 2.992 0 0 1-3.012-5.17z" clip-path="url(#a)" stroke="none" text-rendering="geometricPrecision"/><path d="M1495.41 905.348l-12.987 146.84a2.992 2.992 0 0 1-5.96-.527l12.986-146.84a2.992 2.992 0 1 1 5.96.527zM1320.877 1173.165l-56.153 79.814a2.992 2.992 0 0 1-4.893-3.443l56.152-79.814a2.992 2.992 0 0 1 4.894 3.443z" clip-path="url(#a)" stroke="none" text-rendering="geometricPrecision"/><path d="M1263.333 1254.056l-138.762 52.335a2.992 2.992 0 1 1-2.111-5.599l138.762-52.334a2.992 2.992 0 0 1 2.111 5.598z" clip-path="url(#a)" stroke="none" text-rendering="geometricPrecision"/><path d="M1122.457 1306.39l-135.628-51.333a2.992 2.992 0 0 1 2.118-5.596l135.628 51.332a2.992 2.992 0 0 1-2.118 5.597z" clip-path="url(#a)" stroke="none" text-rendering="geometricPrecision"/><path d="M952.217 1246.48a2.992 2.992 0 0 0 5.29-2.795l-46.07-87.204a2.992 2.992 0 1 0-5.29 2.795zm33.025 7.176a2.992 2.992 0 0 0 5.291-2.795l-66.41-125.706a2.992 2.992 0 1 0-5.29 2.795z" clip-path="url(#a)" stroke="none" text-rendering="geometricPrecision"/><path d="M921.99 1129.5l-84.773 14.716a2.992 2.992 0 0 1-1.023-5.896l84.772-14.715a2.992 2.992 0 1 1 1.024 5.896zM776.339 1207.312l-12.136 84.712a2.992 2.992 0 0 1-5.923-.848l12.136-84.713a2.992 2.992 0 1 1 5.923.849z" clip-path="url(#a)" stroke="none" text-rendering="geometricPrecision"/><path d="M762.426 1325.532a2.992 2.992 0 0 0-3.333-4.97l-88.317 59.229a2.992 2.992 0 1 0 3.333 4.97zm.482-31.447a2.992 2.992 0 1 0-3.333-4.97l-118.076 79.186a2.992 2.992 0 1 0 3.333 4.97z" clip-path="url(#a)" stroke="none" text-rendering="geometricPrecision"/><path d="M646.15 1370.585l9.54 141.85a2.992 2.992 0 0 1-5.97.401l-9.54-141.85a2.992 2.992 0 1 1 5.97-.4z" clip-path="url(#a)" stroke="none" text-rendering="geometricPrecision"/><path d="M681.498 1494.644a2.992 2.992 0 0 0-2.637 5.37l95.452 46.871a2.992 2.992 0 0 0 2.637-5.37zm-27.475 15.306a2.992 2.992 0 1 0-2.637 5.371l127.615 62.664a2.992 2.992 0 1 0 2.637-5.371z" clip-path="url(#a)" stroke="none" text-rendering="geometricPrecision"/><path d="M778.653 1572.814l118.076-79.186a2.992 2.992 0 0 1 3.333 4.97l-118.076 79.186a2.992 2.992 0 1 1-3.333-4.97z" clip-path="url(#a)" stroke="none" text-rendering="geometricPrecision"/><path d="M868.417 1480.173a2.992 2.992 0 0 0 5.97-.401l-7.135-106.1a2.992 2.992 0 0 0-5.97.402zm26.993 16.141a2.992 2.992 0 1 0 5.97-.401l-9.539-141.85a2.992 2.992 0 1 0-5.97.401z" clip-path="url(#a)" stroke="none" text-rendering="geometricPrecision"/><path d="M990.034 1254.343l-99.031 102.005a2.992 2.992 0 0 1-4.293-4.168l99.031-102.005a2.992 2.992 0 0 1 4.293 4.168z" clip-path="url(#a)" stroke="none" text-rendering="geometricPrecision"/><path d="M762.56 1288.915l127.615 62.663a2.992 2.992 0 0 1-2.638 5.371l-127.614-62.663a2.992 2.992 0 1 1 2.637-5.371zM958.233 985.92l-33.845 141.33a2.992 2.992 0 0 1-5.82-1.394l33.846-141.33a2.992 2.992 0 1 1 5.819 1.394z" clip-path="url(#a)" stroke="none" text-rendering="geometricPrecision"/><path d="M953.606 982.773l121.437-85.127a2.992 2.992 0 0 1 3.435 4.9l-121.437 85.127a2.992 2.992 0 1 1-3.435-4.9z" clip-path="url(#a)" stroke="none" text-rendering="geometricPrecision"/><path d="M1227.686 900.92l-150.882 2.167a2.992 2.992 0 1 1-.086-5.983l150.882-2.167a2.992 2.992 0 0 1 .086 5.983zM940.361 983.242l5.677 1.948 2.932-6.785-5.285-2.854zm-15.138-5.195l5.677 1.948 3.977-9.2-5.285-2.854zm-15.137-5.194l5.676 1.948 5.022-11.617-5.285-2.854zm-15.138-5.195l5.677 1.948 6.065-14.032-5.285-2.854zm-15.137-5.195l5.676 1.948 7.11-16.448-5.285-2.854zm-15.138-5.195l5.677 1.948 8.153-18.863-5.285-2.854zm-15.138-5.194l5.677 1.948 9.198-21.28-5.285-2.854zm-15.137-5.195l5.676 1.948 10.243-23.695-5.285-2.854zm-26.609-9.131l17.148 5.884 11.286-26.11-.708-.383-13.863 10.304z" clip-path="url(#a)" stroke="none" text-rendering="geometricPrecision"/><path d="M812.192 938.592a2.992 2.992 0 0 0 4.403-4.051l-58.253-63.297a2.992 2.992 0 1 0-4.403 4.051zm39.598 4.856a2.992 2.992 0 0 0 4.403-4.052l-78.83-85.657a2.992 2.992 0 1 0-4.403 4.052z" clip-path="url(#a)" stroke="none" text-rendering="geometricPrecision"/><path d="M826.608 931.215l-75.517 56.132a2.992 2.992 0 0 1-3.57-4.802l75.518-56.132a2.992 2.992 0 0 1 3.569 4.802zM669.362 999.008l-90.328-39.045a2.992 2.992 0 0 1 2.374-5.493l90.329 39.045a2.992 2.992 0 1 1-2.374 5.493zM955.323 985.223l2.891-.771-28.206-152.132-12.227 12.201-16.68-4.488 51.332 145.961z" clip-path="url(#a)" stroke="none" text-rendering="geometricPrecision"/><path d="M917.894 850.748a2.992 2.992 0 0 0 1.555-5.778l-137.286-36.941a2.992 2.992 0 0 0-1.555 5.778zm-10.583-29.617a2.992 2.992 0 0 0 1.554-5.778l-102.685-27.63a2.992 2.992 0 1 0-1.555 5.778z" clip-path="url(#a)" stroke="none" text-rendering="geometricPrecision"/><path d="M778.495 811.69l-36.652-137.365a2.992 2.992 0 0 1 5.782-1.543l36.65 137.364a2.992 2.992 0 1 1-5.78 1.543z" clip-path="url(#a)" stroke="none" text-rendering="geometricPrecision"/><path d="M742.62 671.436a2.992 2.992 0 0 0 4.226 4.235l100.636-100.423a2.992 2.992 0 0 0-4.226-4.236zm30.941 5.642a2.992 2.992 0 0 0 4.226 4.236l75.272-75.113a2.992 2.992 0 0 0-4.226-4.236z" clip-path="url(#a)" stroke="none" text-rendering="geometricPrecision"/><path d="M846.146 570.241l137.287 36.941a2.992 2.992 0 1 1-1.555 5.778l-137.286-36.94a2.992 2.992 0 1 1 1.554-5.779z" clip-path="url(#a)" stroke="none" text-rendering="geometricPrecision"/><path d="M985.546 609.3a2.992 2.992 0 1 0-5.781 1.543l36.651 137.364a2.992 2.992 0 0 0 5.782-1.543zm-20.356 23.974a2.992 2.992 0 1 0-5.782 1.543l27.414 102.744a2.992 2.992 0 0 0 5.782-1.543z" clip-path="url(#a)" stroke="none" text-rendering="geometricPrecision"/><path d="M916.559 845.741l100.635-100.423a2.992 2.992 0 0 1 4.23 4.235L920.786 849.977a2.992 2.992 0 0 1-4.226-4.236z" clip-path="url(#a)" stroke="none" text-rendering="geometricPrecision"/><path d="M1020.085 744.547l96.953 26.088a2.992 2.992 0 0 1-1.555 5.778l-96.953-26.088a2.992 2.992 0 1 1 1.554-5.778zM1190.085 746.73l65.03-64.894a2.992 2.992 0 0 1 4.232 4.235l-65.031 64.894a2.992 2.992 0 0 1-4.231-4.236zM842.702 574.486l-39.73-78.178a2.992 2.992 0 1 1 5.334-2.711l39.73 78.178a2.992 2.992 0 0 1-5.334 2.71zM803.08 396.509l39.892-78.088a2.992 2.992 0 0 1 5.328 2.722l-39.891 78.088a2.992 2.992 0 0 1-5.329-2.722zM644.685 464.22l-4.634 1.305.465 2.955.465 2.956 4.81-.18zm15.467-4.356l-5.8 1.633 1.476 9.381 6.021-.226zm15.467-4.356l-5.8 1.633 2.066 13.135 6.022-.227zm15.467-4.356l-5.8 1.633 2.657 16.887 6.021-.226zm15.468-4.357l-5.8 1.634 3.246 20.64 6.022-.225zm15.467-4.356l-5.8 1.634 3.837 24.394 6.022-.226zm15.467-4.356l-5.8 1.634 4.427 28.147 6.022-.226-2.324-14.777z" clip-path="url(#a)" stroke="none" text-rendering="geometricPrecision"/><path d="M643.47 468.951l-22.388 140.396a2.992 2.992 0 0 1-5.909-.942l22.389-140.396a2.992 2.992 0 0 1 5.908.942zM632.946 611.787l-5.546-2.297-3.322 6.504 5.124 3.121zm14.788 6.127l-5.546-2.298-4.445 8.702 5.124 3.121zm14.787 6.127l-5.545-2.298-5.568 10.899 5.125 3.121zm14.788 6.126l-5.545-2.297-6.69 13.096 5.124 3.121zm14.788 6.127l-5.545-2.298-7.813 15.294 5.125 3.121zm14.788 6.127l-5.545-2.298-8.936 17.49 5.125 3.122zm14.788 6.126l-5.545-2.297-10.058 19.688 5.124 3.121zm14.788 6.127l-5.545-2.298-11.18 21.886 5.124 3.121zm22.208 9.2l-12.966-5.371-12.302 24.083 20.107 12.248-5.438-20.383z" clip-path="url(#a)" stroke="none" text-rendering="geometricPrecision"/><path d="M620.455 606.996l89.353 110.581a2.992 2.992 0 1 1-4.654 3.76l-89.353-110.58a2.992 2.992 0 1 1 4.654-3.761z" clip-path="url(#a)" stroke="none" text-rendering="geometricPrecision"/><path d="M709.989 721.09L632.432 840.24a2.992 2.992 0 1 1-5.015-3.264l77.557-119.152a2.992 2.992 0 1 1 5.015 3.264z" clip-path="url(#a)" stroke="none" text-rendering="geometricPrecision"/><path d="M629.252 841.524l-127.633-29.451a2.992 2.992 0 0 1 1.346-5.83l127.632 29.451a2.992 2.992 0 1 1-1.345 5.83zM424.782 817.893l-93.535 35.792a2.992 2.992 0 0 1-2.138-5.589l93.534-35.791a2.992 2.992 0 0 1 2.139 5.588z" clip-path="url(#a)" stroke="none" text-rendering="geometricPrecision"/><path d="M328.293 853.214L217.9 763.627a2.992 2.992 0 1 1 3.771-4.646l110.392 89.586a2.992 2.992 0 0 1-3.77 4.647z" clip-path="url(#a)" stroke="none" text-rendering="geometricPrecision"/><path d="M216.831 760.833a2.992 2.992 0 1 0 5.91.942l22.387-140.396a2.992 2.992 0 0 0-5.908-.942zm28.348-13.622a2.992 2.992 0 1 0 5.909.942l16.746-105.011a2.992 2.992 0 1 0-5.91-.943z" clip-path="url(#a)" stroke="none" text-rendering="geometricPrecision"/><path d="M376.024 572.893l-132.78 50.809a2.992 2.992 0 1 1-2.14-5.588l132.781-50.81a2.992 2.992 0 0 1 2.139 5.589zM361.085 564.147l4.939 3.41 4.657-5.74-4.316-4.176zm-13.17-9.094l4.939 3.41 6.316-7.783-4.317-4.176zm-13.17-9.093l4.94 3.41 7.974-9.827-4.317-4.176zm-13.17-9.094l4.94 3.41 9.632-11.87-4.316-4.176zm-13.169-9.093l4.939 3.41 11.29-13.914-4.316-4.176zm-13.17-9.094l4.939 3.41 12.95-15.957-4.317-4.176zm-13.17-9.093l4.94 3.41 14.607-18-4.316-4.177zm-13.17-9.094l4.94 3.41 16.266-20.044-4.317-4.176zm-23.148-15.984l14.918 10.3 17.925-22.087-.579-.56-16.132 6.174z" clip-path="url(#a)" stroke="none" text-rendering="geometricPrecision"/><path d="M265.632 483.306l-132.781 50.81a2.992 2.992 0 0 1-2.139-5.59l132.781-50.808a2.992 2.992 0 1 1 2.139 5.588zM483.462 662.009l-110.393-89.587a2.992 2.992 0 1 1 3.77-4.646l110.393 89.586a2.992 2.992 0 0 1-3.77 4.647z" clip-path="url(#a)" stroke="none" text-rendering="geometricPrecision"/><path d="M619.197 611.67l-132.78 50.81a2.992 2.992 0 1 1-2.14-5.589l132.781-50.809a2.992 2.992 0 1 1 2.139 5.589z" clip-path="url(#a)" stroke="none" text-rendering="geometricPrecision"/><path d="M485.347 659.685l-2.954-.47-25.46 83.662 14.772 2.356 14.772 2.356 1.824-87.432zM400.297 430.174L377.91 570.57a2.992 2.992 0 1 1-5.909-.943l22.389-140.395a2.992 2.992 0 1 1 5.908.942z" clip-path="url(#a)" stroke="none" text-rendering="geometricPrecision"/><path d="M397.343 429.703l2.327-1.88-45.156-74.925-11.635 9.402-11.636 9.401 63.773 59.882zM268.167 328.414L168.011 344.17a2.992 2.992 0 1 1-.93-5.91l100.157-15.756a2.992 2.992 0 1 1 .93 5.911z" clip-path="url(#a)" stroke="none" text-rendering="geometricPrecision"/><path d="M165.22 343.094l-89.355-110.58a2.992 2.992 0 1 1 4.654-3.762l89.354 110.581a2.992 2.992 0 0 1-4.654 3.761z" clip-path="url(#a)" stroke="none" text-rendering="geometricPrecision"/><path d="M200.563 338.787a2.992 2.992 0 1 0-3.253-5.022l-101.913 66.03a2.992 2.992 0 1 0 3.253 5.022zm-39.558-5.17a2.992 2.992 0 1 0-3.253-5.022L81.34 378.102a2.992 2.992 0 1 0 3.254 5.022zM531.193 381.688l-132.78 50.809a2.992 2.992 0 0 1-2.14-5.589L529.055 376.1a2.992 2.992 0 1 1 2.139 5.589z" clip-path="url(#a)" stroke="none" text-rendering="geometricPrecision"/><path d="M638.63 470.803l-110.392-89.586a2.992 2.992 0 0 1 3.77-4.647l110.393 89.587a2.992 2.992 0 0 1-3.77 4.646z" clip-path="url(#a)" stroke="none" text-rendering="geometricPrecision"/><path d="M530.124 378.894l1.713 2.452 81.779-42.535-8.567-12.263-8.568-12.263-68.07 62.156zM525.626 364.445l.62 5.974 7.391-.12.366-5.991zm-1.656-15.931l.621 5.974 10.022-.164.366-5.99zm-1.655-15.931l.62 5.974 12.654-.208.366-5.99zm-1.655-15.931l.62 5.974 15.285-.251.366-5.99zm-1.656-15.932l.621 5.975 17.916-.294.366-5.99zm-1.655-15.93l.62 5.973 20.548-.337.366-5.99zm-1.655-15.932l.62 5.974 23.18-.38.365-5.99zm-1.656-15.931l.62 5.974 25.811-.423.366-5.99zm-1.118-10.758l.084.8 28.441-.466 1.106-18.095-14.815 8.88z" clip-path="url(#a)" stroke="none" text-rendering="geometricPrecision"/><path d="M526.584 254.28a2.992 2.992 0 1 0 2.906-5.23l-88.228-49.028a2.992 2.992 0 1 0-2.907 5.23zm12.556-22.595a2.992 2.992 0 0 0 2.906-5.23l-88.228-49.028a2.992 2.992 0 0 0-2.907 5.23z" clip-path="url(#a)" stroke="none" text-rendering="geometricPrecision"/><path d="M526.254 234.177l82.138-49.236a2.992 2.992 0 0 1 3.076 5.132L529.33 239.31a2.992 2.992 0 1 1-3.076-5.132zM645.814 107.183l-1.404-85.636a2.992 2.992 0 0 1 5.983-.098l1.404 85.636a2.992 2.992 0 1 1-5.983.098z" clip-path="url(#a)" stroke="none" text-rendering="geometricPrecision"/><text y="91" clip-path="url(#b)" stroke="none" transform="translate(1509.308 715.023)" font-size="98" font-family="sans-serif" text-rendering="geometricPrecision">OH</text><text y="91" clip-path="url(#c)" stroke="none" transform="translate(1314.105 1070.343)" font-size="98" font-family="sans-serif" text-rendering="geometricPrecision">N</text><text y="91" clip-path="url(#d)" stroke="none" transform="translate(692.903 1093.367)" font-size="98" font-family="sans-serif" text-rendering="geometricPrecision">HN</text><text y="91" clip-path="url(#e)" stroke="none" transform="translate(694.55 766.702)" font-size="98" font-family="sans-serif" text-rendering="geometricPrecision">O</text><text y="91" clip-path="url(#f)" stroke="none" transform="translate(676.721 956.126)" font-size="98" font-family="sans-serif" text-rendering="geometricPrecision">O</text><text y="91" clip-path="url(#g)" stroke="none" transform="translate(1122.594 726.877)" font-size="98" font-family="sans-serif" text-rendering="geometricPrecision">O</text><text y="91" clip-path="url(#h)" stroke="none" transform="translate(745.959 388.888)" font-size="98" font-family="sans-serif" text-rendering="geometricPrecision">N</text><text y="91" clip-path="url(#i)" stroke="none" transform="translate(427.959 742.581)" font-size="98" font-family="sans-serif" text-rendering="geometricPrecision">N</text><text y="91" clip-path="url(#j)" stroke="none" transform="translate(273.99 261.622)" font-size="98" font-family="sans-serif" text-rendering="geometricPrecision">O</text><text y="91" clip-path="url(#k)" stroke="none" transform="translate(14.231 361.02)" font-size="98" font-family="sans-serif" text-rendering="geometricPrecision">O</text><text y="91" clip-path="url(#l)" stroke="none" transform="translate(612.168 239.971)" font-size="98" font-family="sans-serif" text-rendering="geometricPrecision">OH</text><text y="91" clip-path="url(#m)" stroke="none" transform="translate(369.52 110.186)" font-size="98" font-family="sans-serif" text-rendering="geometricPrecision">O</text><text y="91" clip-path="url(#n)" stroke="none" transform="translate(615.733 106.148)" font-size="98" font-family="sans-serif" text-rendering="geometricPrecision">O</text></g></svg>