<svg xmlns="http://www.w3.org/2000/svg" width="1683.427" stroke-miterlimit="10" font-weight="400" height="1572.812" font-size="12" font-family="Dialog" color-interpolation="auto" stroke="#000" stroke-linecap="square"><g transform="translate(-20.5 -18.5)"><defs><clipPath id="a"><path d="M0 0h1723v1610H0z"/></clipPath><clipPath id="b"><path d="M-1477.889-729.95h1723v1610h-1723z"/></clipPath><clipPath id="c"><path d="M-1286.905-1084.87h1723v1610h-1723z"/></clipPath><clipPath id="d"><path d="M-664.34-1107.868h1723v1610h-1723z"/></clipPath><clipPath id="e"><path d="M-664.546-781.57h1723v1610h-1723z"/></clipPath><clipPath id="f"><path d="M-646.738-970.781h1723v1610h-1723z"/></clipPath><clipPath id="g"><path d="M-1102.334-752.586h1723v1610h-1723z"/></clipPath><clipPath id="h"><path d="M-747.804-395.803h1723v1610h-1723z"/></clipPath><clipPath id="i"><path d="M-412.106-731.99h1723v1610h-1723z"/></clipPath><clipPath id="j"><path d="M-280.166-244.128h1723v1610h-1723z"/></clipPath><clipPath id="k"><path d="M-15.86-329.699h1723v1610h-1723z"/></clipPath><clipPath id="l"><path d="M-618.133-240.237h1723v1610h-1723z"/></clipPath><clipPath id="m"><path d="M-383.376-98.064h1723v1610h-1723z"/></clipPath><clipPath id="n"><path d="M-629.186-106.908h1723v1610h-1723z"/></clipPath></defs><path d="M1703.12 849.482l-97.067 103.657a2.988 2.988 0 1 1-4.363-4.085l97.068-103.657a2.988 2.988 0 1 1 4.362 4.085z" clip-path="url(#a)" stroke="none" text-rendering="geometricPrecision"/><path d="M1465.568 918.862l-.678 2.91 130.548 42.702 11.794-12.594 11.793-12.594-152.779-23.335z" clip-path="url(#a)" stroke="none" text-rendering="geometricPrecision"/><path d="M1463.936 912.842l-1.155 4.94 2.787 1.08 2.786 1.08 2.476-4.427zm3.663-15.673l-1.374 5.877 9.516 3.688 2.946-5.268zm3.663-15.674l-1.374 5.877 13.71 5.314 2.946-5.268zm3.662-15.674l-1.373 5.877 17.904 6.94 2.946-5.268zm3.663-15.674l-1.373 5.878 22.098 8.564 2.946-5.268zm3.663-15.674l-1.373 5.878 26.292 10.19 2.946-5.268-13.932-5.4z" clip-path="url(#a)" stroke="none" text-rendering="geometricPrecision"/><path d="M1464.108 921.47l-128.472-71.952a2.988 2.988 0 1 1 2.92-5.215l128.472 71.951a2.988 2.988 0 1 1-2.92 5.215z" clip-path="url(#a)" stroke="none" text-rendering="geometricPrecision"/><path d="M1201.079 911.714l1.285 2.698 154.006-60.133-15.969-8.943-15.969-8.943-124.638 72.623z" clip-path="url(#a)" stroke="none" text-rendering="geometricPrecision"/><path d="M1203.845 910.584l49.364 120.797a2.988 2.988 0 1 1-5.533 2.26l-49.363-120.796a2.988 2.988 0 1 1 5.532-2.261z" clip-path="url(#a)" stroke="none" text-rendering="geometricPrecision"/><path d="M1252.936 1030.863l42.29 63.973a2.988 2.988 0 1 1-4.986 3.297l-42.29-63.974a2.988 2.988 0 0 1 4.986-3.296zM1360.234 1115.877l90.858-52.922a2.988 2.988 0 1 1 3.008 5.164l-90.858 52.922a2.988 2.988 0 1 1-3.008-5.164z" clip-path="url(#a)" stroke="none" text-rendering="geometricPrecision"/><path d="M1468.545 919.125l-12.973 146.675a2.988 2.988 0 1 1-5.953-.526l12.972-146.676a2.989 2.989 0 0 1 5.954.527zM1294.031 1186.893l-55.912 79.472a2.988 2.988 0 1 1-4.889-3.439l55.913-79.472a2.989 2.989 0 0 1 4.888 3.439z" clip-path="url(#a)" stroke="none" text-rendering="geometricPrecision"/><path d="M1236.73 1267.442l-138.607 52.275a2.988 2.988 0 1 1-2.109-5.592l138.606-52.276a2.989 2.989 0 0 1 2.11 5.593z" clip-path="url(#a)" stroke="none" text-rendering="geometricPrecision"/><path d="M1096.01 1319.716l-135.475-51.275a2.988 2.988 0 1 1 2.116-5.59l135.476 51.275a2.988 2.988 0 0 1-2.116 5.59z" clip-path="url(#a)" stroke="none" text-rendering="geometricPrecision"/><path d="M925.962 1259.874a2.988 2.988 0 1 0 5.285-2.792l-46.018-87.106a2.988 2.988 0 0 0-5.285 2.792zm32.989 7.168a2.989 2.989 0 0 0 5.284-2.792L897.9 1138.685a2.988 2.988 0 1 0-5.285 2.792z" clip-path="url(#a)" stroke="none" text-rendering="geometricPrecision"/><path d="M895.769 1143.026l-84.13 14.603a2.988 2.988 0 1 1-1.022-5.889l84.13-14.603a2.988 2.988 0 1 1 1.022 5.889zM750.454 1219.549l-12.295 85.818a2.988 2.988 0 1 1-5.916-.848l12.294-85.818a2.988 2.988 0 1 1 5.917.848z" clip-path="url(#a)" stroke="none" text-rendering="geometricPrecision"/><path d="M736.384 1338.837a2.988 2.988 0 1 0-3.329-4.964l-88.217 59.162a2.989 2.989 0 0 0 3.329 4.964zm.481-31.412a2.988 2.988 0 0 0-3.328-4.964l-117.944 79.097a2.988 2.988 0 0 0 3.33 4.964z" clip-path="url(#a)" stroke="none" text-rendering="geometricPrecision"/><path d="M620.24 1383.84l9.528 141.69a2.988 2.988 0 0 1-5.963.4l-9.529-141.69a2.988 2.988 0 0 1 5.964-.4z" clip-path="url(#a)" stroke="none" text-rendering="geometricPrecision"/><path d="M655.548 1507.759a2.988 2.988 0 0 0-2.635 5.365l95.345 46.818a2.988 2.988 0 0 0 2.634-5.365zm-27.444 15.289a2.988 2.988 0 0 0-2.635 5.365l127.472 62.593a2.988 2.988 0 0 0 2.634-5.365z" clip-path="url(#a)" stroke="none" text-rendering="geometricPrecision"/><path d="M752.593 1585.841l117.943-79.096a2.989 2.989 0 0 1 3.33 4.964l-117.944 79.096a2.989 2.989 0 0 1-3.329-4.964z" clip-path="url(#a)" stroke="none" text-rendering="geometricPrecision"/><path d="M842.257 1493.304a2.988 2.988 0 1 0 5.963-.4l-7.127-105.98a2.988 2.988 0 0 0-5.963.4zm26.962 16.123a2.988 2.988 0 0 0 5.964-.401l-9.529-141.69a2.989 2.989 0 0 0-5.963.4z" clip-path="url(#a)" stroke="none" text-rendering="geometricPrecision"/><path d="M963.737 1267.728l-98.92 101.89a2.988 2.988 0 1 1-4.289-4.164l98.92-101.89a2.988 2.988 0 1 1 4.29 4.164z" clip-path="url(#a)" stroke="none" text-rendering="geometricPrecision"/><path d="M736.518 1302.26l127.472 62.594a2.988 2.988 0 0 1-2.635 5.365l-127.471-62.593a2.988 2.988 0 1 1 2.634-5.365zM931.971 999.606l-33.807 141.171a2.988 2.988 0 0 1-5.813-1.392l33.808-141.17a2.989 2.989 0 0 1 5.812 1.391z" clip-path="url(#a)" stroke="none" text-rendering="geometricPrecision"/><path d="M927.35 996.463l121.3-85.032a2.989 2.989 0 0 1 3.431 4.894l-121.3 85.032a2.989 2.989 0 0 1-3.431-4.894z" clip-path="url(#a)" stroke="none" text-rendering="geometricPrecision"/><path d="M1201.122 914.702l-150.713 2.164a2.989 2.989 0 0 1-.086-5.976l150.713-2.164a2.988 2.988 0 1 1 .086 5.976zM914.12 996.932l5.67 1.945 2.93-6.777-5.28-2.85zm-15.12-5.19l5.67 1.946 3.972-9.19-5.28-2.85zm-15.122-5.188l5.67 1.946 5.016-11.604-5.279-2.85zm-15.12-5.19l5.67 1.947 6.059-14.017-5.28-2.85zm-15.12-5.188l5.67 1.946 7.101-16.43-5.279-2.85zm-15.121-5.19l5.67 1.947 8.145-18.843-5.28-2.85zm-15.121-5.188l5.67 1.946 9.188-21.256-5.28-2.85zm-15.12-5.189l5.67 1.946 10.23-23.668-5.279-2.851zm-26.58-9.12l17.129 5.877 11.274-26.081-.707-.382-13.848 10.292z" clip-path="url(#a)" stroke="none" text-rendering="geometricPrecision"/><path d="M786.094 952.332a2.988 2.988 0 1 0 4.398-4.047l-56.921-61.852a2.988 2.988 0 1 0-4.398 4.048zm39.554 4.85a2.988 2.988 0 1 0 4.398-4.047l-77.477-84.186a2.988 2.988 0 1 0-4.397 4.047z" clip-path="url(#a)" stroke="none" text-rendering="geometricPrecision"/><path d="M800.494 944.963l-71.393 53.066a2.988 2.988 0 0 1-3.565-4.797l71.393-53.066a2.988 2.988 0 1 1 3.565 4.797zM637.894 1010.288l-84.695-36.61a2.988 2.988 0 1 1 2.371-5.486l84.695 36.61a2.988 2.988 0 1 1-2.371 5.486zM929.065 998.91l2.924-.618-20.183-153.227-12.834 11.531-16.403-5.349L926.14 999.53z" clip-path="url(#a)" stroke="none" text-rendering="geometricPrecision"/><path d="M898.76 862.813a2.988 2.988 0 1 0 1.852-5.682L765.6 813.105a2.989 2.989 0 0 0-1.853 5.683zm-9.01-30.095a2.989 2.989 0 0 0 1.853-5.683l-100.985-32.93a2.988 2.988 0 0 0-1.853 5.683z" clip-path="url(#a)" stroke="none" text-rendering="geometricPrecision"/><path d="M761.749 816.565l-29.38-138.938a2.988 2.988 0 0 1 5.848-1.237l29.38 138.938a2.989 2.989 0 0 1-5.848 1.237z" clip-path="url(#a)" stroke="none" text-rendering="geometricPrecision"/><path d="M733.296 674.785a2.988 2.988 0 0 0 3.995 4.446l105.634-94.912a2.989 2.989 0 0 0-3.995-4.446zm30.569 7.246a2.989 2.989 0 0 0 3.994 4.446l79.011-70.99a2.988 2.988 0 1 0-3.994-4.447z" clip-path="url(#a)" stroke="none" text-rendering="geometricPrecision"/><path d="M841.854 579.255l135.014 44.026a2.988 2.988 0 1 1-1.853 5.683L840 584.938a2.988 2.988 0 1 1 1.853-5.683z" clip-path="url(#a)" stroke="none" text-rendering="geometricPrecision"/><path d="M978.865 625.504a2.988 2.988 0 1 0-5.847 1.237l29.379 138.938a2.988 2.988 0 1 0 5.847-1.237zm-21.56 22.85a2.988 2.988 0 0 0-5.847 1.237l21.975 103.92a2.988 2.988 0 1 0 5.847-1.236z" clip-path="url(#a)" stroke="none" text-rendering="geometricPrecision"/><path d="M897.689 857.75l105.634-94.913a2.988 2.988 0 1 1 3.995 4.446l-105.635 94.912a2.989 2.989 0 0 1-3.994-4.446z" clip-path="url(#a)" stroke="none" text-rendering="geometricPrecision"/><path d="M1006.247 762.22l89.222 29.093a2.989 2.989 0 0 1-1.853 5.683l-89.222-29.094a2.988 2.988 0 1 1 1.853-5.683zM1178.879 770.436l65.092-58.485a2.988 2.988 0 1 1 3.994 4.446l-65.091 58.485a2.989 2.989 0 0 1-3.995-4.446zM838.197 583.31l-35.835-80.715a2.988 2.988 0 1 1 5.463-2.426l35.834 80.715a2.988 2.988 0 1 1-5.462 2.425zM807.755 404.09l44.097-76.193a2.988 2.988 0 1 1 5.173 2.993l-44.097 76.194a2.988 2.988 0 1 1-5.173-2.994zM646.879 462.87l-5.132 1.156.31 2.972.308 2.973 5.26.075zm15.657-3.529l-5.872 1.323.991 9.525 6.018.086zm15.657-3.528l-5.872 1.323 1.382 13.283 6.019.086zm15.657-3.528l-5.871 1.323 1.773 17.04 6.018.087zm15.657-3.529l-5.871 1.323 2.164 20.8 6.018.085zm15.658-3.528l-5.872 1.323 2.555 24.557 6.018.086zm15.657-3.528l-5.872 1.323 2.946 28.315 6.018.086-1.546-14.862z" clip-path="url(#a)" stroke="none" text-rendering="geometricPrecision"/><path d="M644.979 467.623l-29.672 138.875a2.988 2.988 0 1 1-5.845-1.249l29.672-138.875a2.988 2.988 0 1 1 5.845 1.248zM627.013 609.552l-5.412-2.582-3.654 6.315 4.949 3.381zm14.43 6.885l-5.41-2.582-4.89 8.447 4.949 3.382zm14.432 6.884l-5.412-2.582-6.123 10.58 4.948 3.383zm14.43 6.884l-5.411-2.581-7.358 12.714 4.948 3.381zm14.431 6.885l-5.412-2.582-8.592 14.847 4.948 3.382zm14.43 6.884l-5.41-2.581-9.828 16.98 4.948 3.381zm14.432 6.885l-5.412-2.582-11.062 19.113 4.949 3.382zm14.43 6.884l-5.411-2.581-12.297 21.246 4.949 3.382zm21.672 10.339l-12.653-6.036-13.53 23.38 19.417 13.269-4.36-20.617z" clip-path="url(#a)" stroke="none" text-rendering="geometricPrecision"/><path d="M614.804 604.12l83.35 114.976a2.989 2.989 0 0 1-4.84 3.508l-83.35-114.976a2.988 2.988 0 1 1 4.84-3.508z" clip-path="url(#a)" stroke="none" text-rendering="geometricPrecision"/><path d="M698.15 722.61l-83.592 114.8a2.988 2.988 0 1 1-4.832-3.518l83.593-114.8a2.988 2.988 0 0 1 4.831 3.517z" clip-path="url(#a)" stroke="none" text-rendering="geometricPrecision"/><path d="M611.318 838.524l-124.72-35.749a2.988 2.988 0 1 1 1.646-5.745l124.721 35.748a2.988 2.988 0 0 1-1.647 5.746zM408.734 804.217l-95.313 30.858a2.988 2.988 0 0 1-1.841-5.686l95.313-30.858a2.988 2.988 0 0 1 1.84 5.686z" clip-path="url(#a)" stroke="none" text-rendering="geometricPrecision"/><path d="M310.498 834.45l-105.433-95.134a2.988 2.988 0 1 1 4.004-4.438l105.433 95.135a2.988 2.988 0 1 1-4.004 4.437z" clip-path="url(#a)" stroke="none" text-rendering="geometricPrecision"/><path d="M204.144 736.473a2.988 2.988 0 1 0 5.845 1.249l29.672-138.876a2.988 2.988 0 1 0-5.845-1.249zm28.99-12.106a2.988 2.988 0 1 0 5.844 1.249l22.194-103.874a2.988 2.988 0 1 0-5.845-1.25z" clip-path="url(#a)" stroke="none" text-rendering="geometricPrecision"/><path d="M372.765 557.323l-135.106 43.742a2.988 2.988 0 1 1-1.841-5.687l135.106-43.74a2.988 2.988 0 1 1 1.84 5.686zM358.32 547.818l4.749 3.66 4.946-5.482-4.088-4.391zm-12.661-9.76l4.748 3.66 6.707-7.433-4.087-4.391zm-12.662-9.759l4.748 3.66 8.469-9.385-4.088-4.391zm-12.661-9.759l4.748 3.66 10.23-11.337-4.088-4.392zm-12.662-9.76l4.748 3.66 11.99-13.288-4.087-4.392zm-12.661-9.758l4.748 3.66 13.751-15.24-4.087-4.393zm-12.662-9.76l4.748 3.66 15.513-17.192-4.088-4.392zm-12.661-9.759l4.748 3.66 17.274-19.144-4.088-4.392zm-22.256-17.155l14.342 11.055 19.035-21.095-.548-.588-16.414 5.314z" clip-path="url(#a)" stroke="none" text-rendering="geometricPrecision"/><path d="M267.331 462.189L132.225 505.93a2.988 2.988 0 0 1-1.84-5.686l135.105-43.741a2.988 2.988 0 0 1 1.841 5.686zM475.276 651.834l-105.434-95.135a2.988 2.988 0 1 1 4.004-4.437l105.434 95.134a2.988 2.988 0 1 1-4.004 4.438z" clip-path="url(#a)" stroke="none" text-rendering="geometricPrecision"/><path d="M613.305 608.717l-135.106 43.741a2.988 2.988 0 1 1-1.841-5.686l135.106-43.741a2.989 2.989 0 0 1 1.84 5.686z" clip-path="url(#a)" stroke="none" text-rendering="geometricPrecision"/><path d="M477.278 649.615l-2.922-.624-30.014 83.265 14.612 3.122 14.613 3.122 6.634-88.26zM404.439 416.229l-29.672 138.876a2.988 2.988 0 1 1-5.845-1.25l29.672-138.875a2.988 2.988 0 0 1 5.845 1.249z" clip-path="url(#a)" stroke="none" text-rendering="geometricPrecision"/><path d="M401.516 415.605l2.42-1.754-39.44-74.77-12.097 8.77-12.098 8.77 58.796 60.738zM272.776 308.355l-95.549 9.94a2.988 2.988 0 1 1-.618-5.944l95.55-9.94a2.988 2.988 0 1 1 .618 5.944z" clip-path="url(#a)" stroke="none" text-rendering="geometricPrecision"/><path d="M174.499 317.077l-83.35-114.976a2.988 2.988 0 0 1 4.838-3.508l83.35 114.976a2.988 2.988 0 1 1-4.838 3.508z" clip-path="url(#a)" stroke="none" text-rendering="geometricPrecision"/><path d="M209.98 314.628a2.988 2.988 0 0 0-2.983-5.179L105.164 368.1a2.988 2.988 0 1 0 2.983 5.18zm-39.19-7.225a2.988 2.988 0 0 0-2.982-5.18l-75.53 43.502a2.988 2.988 0 1 0 2.983 5.179zM537.543 374.707l-135.106 43.74a2.989 2.989 0 0 1-1.841-5.686l135.106-43.74a2.988 2.988 0 1 1 1.84 5.686z" clip-path="url(#a)" stroke="none" text-rendering="geometricPrecision"/><path d="M640.054 469.217L534.62 374.082a2.988 2.988 0 1 1 4.004-4.437l105.434 95.134a2.988 2.988 0 1 1-4.004 4.438z" clip-path="url(#a)" stroke="none" text-rendering="geometricPrecision"/><path d="M536.622 371.863l1.581 2.536 80.592-36.154-7.905-12.68-7.905-12.68-67.944 56.442zM532.891 357.216l.307 5.992 7.378.265.679-5.956zm-.818-15.978l.306 5.992 10.006.36.678-5.957zm-.819-15.978l.307 5.992 12.633.454.678-5.956zm-.818-15.978l.307 5.992 15.26.549.678-5.957zm-.819-15.978l.307 5.992 17.887.643.678-5.956zm-.818-15.978l.307 5.992 20.514.738.678-5.957zm-.818-15.978l.306 5.992 23.142.832.678-5.956zm-.819-15.978l.307 5.992 25.768.927.678-5.957zm-.553-10.79l.042.803 28.395 1.022 2.049-17.992-15.243 8.084z" clip-path="url(#a)" stroke="none" text-rendering="geometricPrecision"/><path d="M539.606 247.375a2.989 2.989 0 0 0 3.172-5.065l-80.31-50.302a2.989 2.989 0 0 0-3.173 5.066zm13.705-21.882a2.988 2.988 0 1 0 3.173-5.065l-80.31-50.302a2.988 2.988 0 1 0-3.174 5.066z" clip-path="url(#a)" stroke="none" text-rendering="geometricPrecision"/><path d="M540.328 227.305l79.997-42.427a2.988 2.988 0 1 1 2.8 5.28l-79.997 42.427a2.988 2.988 0 0 1-2.8-5.28zM666.189 107.997l3.116-86.615a2.988 2.988 0 0 1 5.973.215l-3.116 86.615a2.988 2.988 0 0 1-5.973-.215z" clip-path="url(#a)" stroke="none" text-rendering="geometricPrecision"/><text y="92" clip-path="url(#b)" stroke="none" transform="translate(1477.889 729.95)" font-size="98" font-family="Liberation Sans" text-rendering="geometricPrecision">OH</text><text y="92" clip-path="url(#c)" stroke="none" transform="translate(1286.905 1084.87)" font-size="98" font-family="Liberation Sans" text-rendering="geometricPrecision">N</text><text y="92" clip-path="url(#d)" stroke="none" transform="translate(664.34 1107.868)" font-size="98" font-family="Liberation Sans" text-rendering="geometricPrecision">HN</text><text y="92" clip-path="url(#e)" stroke="none" transform="translate(664.546 781.57)" font-size="98" font-family="Liberation Sans" text-rendering="geometricPrecision">O</text><text y="92" clip-path="url(#f)" stroke="none" transform="translate(646.738 970.781)" font-size="98" font-family="Liberation Sans" text-rendering="geometricPrecision">O</text><text y="92" clip-path="url(#g)" stroke="none" transform="translate(1102.334 752.586)" font-size="98" font-family="Liberation Sans" text-rendering="geometricPrecision">O</text><text y="92" clip-path="url(#h)" stroke="none" transform="translate(747.804 395.803)" font-size="98" font-family="Liberation Sans" text-rendering="geometricPrecision">N</text><text y="92" clip-path="url(#i)" stroke="none" transform="translate(412.106 731.99)" font-size="98" font-family="Liberation Sans" text-rendering="geometricPrecision">N</text><text y="92" clip-path="url(#j)" stroke="none" transform="translate(280.166 244.128)" font-size="98" font-family="Liberation Sans" text-rendering="geometricPrecision">O</text><text y="92" clip-path="url(#k)" stroke="none" transform="translate(15.86 329.699)" font-size="98" font-family="Liberation Sans" text-rendering="geometricPrecision">O</text><text y="92" clip-path="url(#l)" stroke="none" transform="translate(618.133 240.237)" font-size="98" font-family="Liberation Sans" text-rendering="geometricPrecision">OH</text><text y="92" clip-path="url(#m)" stroke="none" transform="translate(383.376 98.064)" font-size="98" font-family="Liberation Sans" text-rendering="geometricPrecision">O</text><text y="92" clip-path="url(#n)" stroke="none" transform="translate(629.186 106.908)" font-size="98" font-family="Liberation Sans" text-rendering="geometricPrecision">O</text></g></svg>