<svg xmlns="http://www.w3.org/2000/svg" width="2414.807" stroke-miterlimit="10" font-weight="400" height="1338.355" font-size="12" font-family="Dialog" color-interpolation="auto" stroke="#000" stroke-linecap="square"><g transform="translate(-100.71 -111.65)"><defs><clipPath id="a"><path d="M0 0h2616v1552H0z"/></clipPath><clipPath id="b"><path d="M-2067.82-1003.866h2616v1552h-2616z"/></clipPath><clipPath id="c"><path d="M-1323.28-1114.294h2616v1552h-2616z"/></clipPath><clipPath id="d"><path d="M-980.497-774.557h2616v1552h-2616z"/></clipPath><clipPath id="e"><path d="M-1320.234-444.605h2616v1552h-2616z"/></clipPath><clipPath id="f"><path d="M-1796.822-640.753h2616v1552h-2616z"/></clipPath><clipPath id="g"><path d="M-1877.965-85.072h2616v1552h-2616z"/></clipPath><clipPath id="h"><path d="M-2414.645-233.542h2616v1552h-2616z"/></clipPath></defs><path d="M2477.166 1050.525l-206.144-185.613a6.004 6.004 0 1 1 8.035-8.924l206.144 185.613a6.004 6.004 0 0 1-8.035 8.924z" clip-path="url(#a)" stroke="none" text-rendering="geometricPrecision"/><path d="M2271.022 855.988l206.144-185.613a6.004 6.004 0 0 1 8.035 8.924l-206.144 185.613a6.004 6.004 0 1 1-8.035-8.924z" clip-path="url(#a)" stroke="none" text-rendering="geometricPrecision"/><path d="M2279.897 863.979l-114.865 158.099a6.004 6.004 0 0 1-9.715-7.059l114.865-158.098a6.004 6.004 0 1 1 9.715 7.058zM1850.03 993.437l203.448 66.104a6.004 6.004 0 1 1-3.71 11.42l-203.45-66.104a6.004 6.004 0 1 1 3.711-11.42z" clip-path="url(#a)" stroke="none" text-rendering="geometricPrecision"/><path d="M1848.174 1005.151H1570.78a6.004 6.004 0 0 1 0-12.008h277.394a6.004 6.004 0 1 1 0 12.008zM1558.282 1031.131l6.392-10.59-15.289-15.289-10.59 6.393zm-17.046 28.24l6.392-10.59-26.483-26.483-10.59 6.392zm-17.046 28.241l6.392-10.59-37.678-37.678-10.59 6.392zm-17.046 28.24l6.392-10.59-48.872-48.872-10.59 6.392 26.535 26.535zM1309.975 1184.185l-204.839-54.886a6.004 6.004 0 0 1 3.108-11.6l204.838 54.887a6.004 6.004 0 1 1-3.108 11.6z" clip-path="url(#a)" stroke="none" text-rendering="geometricPrecision"/><path d="M1080.464 1145.48a6.004 6.004 0 0 0 11.599-3.108L1040.42 949.64a6.004 6.004 0 1 0-11.599 3.108zm48.33-12.95a6.004 6.004 0 1 0 11.599-3.108L1088.75 936.69a6.004 6.004 0 0 0-11.6 3.108z" clip-path="url(#a)" stroke="none" text-rendering="geometricPrecision"/><path d="M1110.936 1127.745l-196.148 196.147a6.004 6.004 0 1 1-8.49-8.49l196.147-196.148a6.004 6.004 0 1 1 8.49 8.491z" clip-path="url(#a)" stroke="none" text-rendering="geometricPrecision"/><path d="M908.989 1325.446l-267.943-71.795a6.004 6.004 0 1 1 3.108-11.599l267.943 71.795a6.004 6.004 0 1 1-3.108 11.6z" clip-path="url(#a)" stroke="none" text-rendering="geometricPrecision"/><path d="M646.846 1252.097a6.004 6.004 0 1 0-8.491-8.49l-196.147 196.147a6.004 6.004 0 0 0 8.49 8.49zm-60.052-10.707a6.004 6.004 0 1 0-8.491-8.492L431.5 1379.701a6.004 6.004 0 1 0 8.49 8.491z" clip-path="url(#a)" stroke="none" text-rendering="geometricPrecision"/><path d="M444.9 1449.799l-267.943-71.795a6.004 6.004 0 0 1 3.108-11.6l267.942 71.796a6.004 6.004 0 1 1-3.108 11.599z" clip-path="url(#a)" stroke="none" text-rendering="geometricPrecision"/><path d="M172.711 1373.758a6.004 6.004 0 0 0 11.6-3.108l-71.795-267.942a6.004 6.004 0 1 0-11.6 3.108zm39.3-46.653a6.004 6.004 0 1 0 11.599-3.108l-53.734-200.536a6.004 6.004 0 0 0-11.599 3.108z" clip-path="url(#a)" stroke="none" text-rendering="geometricPrecision"/><path d="M102.47 1100.016L298.618 903.87a6.004 6.004 0 0 1 8.49 8.491l-196.146 196.148a6.004 6.004 0 0 1-8.492-8.492z" clip-path="url(#a)" stroke="none" text-rendering="geometricPrecision"/><path d="M304.417 902.315a6.004 6.004 0 0 0-3.108 11.6l267.943 71.794a6.004 6.004 0 1 0 3.108-11.599zm20.753 57.36a6.004 6.004 0 0 0-3.108 11.6l200.537 53.733a6.004 6.004 0 1 0 3.108-11.599z" clip-path="url(#a)" stroke="none" text-rendering="geometricPrecision"/><path d="M636.801 1249.406l-71.795-267.942a6.004 6.004 0 0 1 11.6-3.108l71.794 267.942a6.004 6.004 0 1 1-11.599 3.108zM1564.775 999.147V721.753a6.004 6.004 0 0 1 12.009 0v277.394a6.004 6.004 0 1 1-12.009 0z" clip-path="url(#a)" stroke="none" text-rendering="geometricPrecision"/><path d="M1566.534 761.378a6.004 6.004 0 0 0 8.491-8.49l-150.37-150.371a6.004 6.004 0 1 0-8.491 8.49zm35.38-35.38a6.004 6.004 0 0 0 8.491-8.49l-150.37-150.371a6.004 6.004 0 1 0-8.491 8.49z" clip-path="url(#a)" stroke="none" text-rendering="geometricPrecision"/><path d="M1570.78 715.749h215.026a6.004 6.004 0 0 1 0 12.008H1570.78a6.004 6.004 0 0 1 0-12.008zM1837.204 969.21l1.992 12.01h17.956l1.991-12.01zm-5.311-32.021l1.992 12.008h28.578l1.992-12.008zm-5.311-32.023l1.991 12.009h39.201l1.992-12.009zm-5.312-32.022l1.992 12.008h49.824l1.991-12.008zm-5.311-32.022l1.992 12.008h60.446l1.992-12.008zm-5.312-32.023l1.992 12.009h71.07l1.991-12.009h-37.526zM2113.847 641.744l-200.77 65.234a6.004 6.004 0 1 1-3.71-11.421l200.769-65.234a6.004 6.004 0 0 1 3.71 11.42z" clip-path="url(#a)" stroke="none" text-rendering="geometricPrecision"/><path d="M2116.849 632.504l163.048 224.417a6.004 6.004 0 1 1-9.715 7.058l-163.048-224.417a6.004 6.004 0 0 1 9.715-7.058z" clip-path="url(#a)" stroke="none" text-rendering="geometricPrecision"/><path d="M2111.991 636.033l5.71 1.856 111.147-240.065-28.995-32.202-28.994-32.202-64.578 300.758z" clip-path="url(#a)" stroke="none" text-rendering="geometricPrecision"/><path d="M2193.249 376.233l-114.683-127.368a6.004 6.004 0 0 1 8.925-8.035l114.682 127.368a6.004 6.004 0 0 1-8.924 8.035z" clip-path="url(#a)" stroke="none" text-rendering="geometricPrecision"/><path d="M2177.133 344.875a6.004 6.004 0 0 0 2.496 11.746l210.14-44.666a6.004 6.004 0 1 0-2.497-11.746zm10.403 48.942a6.004 6.004 0 0 0 2.496 11.745l210.14-44.666a6.004 6.004 0 0 0-2.497-11.746z" clip-path="url(#a)" stroke="none" text-rendering="geometricPrecision"/><text y="129" clip-path="url(#b)" stroke="none" transform="translate(2067.82 1003.866)" font-size="138" font-family="sans-serif" text-rendering="geometricPrecision">S</text><text y="129" clip-path="url(#c)" stroke="none" transform="translate(1323.28 1114.294)" font-size="138" font-family="sans-serif" text-rendering="geometricPrecision">NH</text><text y="129" clip-path="url(#d)" stroke="none" transform="translate(980.497 774.557)" font-size="138" font-family="sans-serif" text-rendering="geometricPrecision">O</text><text y="129" clip-path="url(#e)" stroke="none" transform="translate(1320.234 444.605)" font-size="138" font-family="sans-serif" text-rendering="geometricPrecision">O</text><text y="129" clip-path="url(#f)" stroke="none" transform="translate(1796.822 640.753)" font-size="138" font-family="sans-serif" text-rendering="geometricPrecision">N</text><text y="129" clip-path="url(#g)" stroke="none" transform="translate(1877.965 85.072)" font-size="138" font-family="sans-serif" text-rendering="geometricPrecision">HO</text><text y="129" clip-path="url(#h)" stroke="none" transform="translate(2414.645 233.542)" font-size="138" font-family="sans-serif" text-rendering="geometricPrecision">O</text></g></svg>