<?xml version="1.0" encoding="UTF-8" standalone="no"?>
<!-- Created with Inkscape (http://www.inkscape.org/) -->

<svg
   xmlns:dc="http://purl.org/dc/elements/1.1/"
   xmlns:cc="http://creativecommons.org/ns#"
   xmlns:rdf="http://www.w3.org/1999/02/22-rdf-syntax-ns#"
   xmlns:svg="http://www.w3.org/2000/svg"
   xmlns="http://www.w3.org/2000/svg"
   xmlns:sodipodi="http://sodipodi.sourceforge.net/DTD/sodipodi-0.dtd"
   xmlns:inkscape="http://www.inkscape.org/namespaces/inkscape"
   width="1000mm"
   height="500mm"
   viewBox="0 0 1000 500"
   version="1.1"
   id="svg831"
   inkscape:version="0.92.4 5da689c313, 2019-01-14"
   sodipodi:docname="Boomerang with white star, blue background to white southern cross.svg"
   inkscape:export-filename="/home/fusion809/Pictures/Flags/Australian flag proposals/Boomerang with white star, blue background to white southern cross.svg.png"
   inkscape:export-xdpi="145.7"
   inkscape:export-ydpi="145.7">
  <defs
     id="defs825" />
  <sodipodi:namedview
     id="base"
     pagecolor="#ffffff"
     bordercolor="#666666"
     borderopacity="1.0"
     inkscape:pageopacity="0.0"
     inkscape:pageshadow="2"
     inkscape:zoom="0.079999996"
     inkscape:cx="1427.3118"
     inkscape:cy="3008.5347"
     inkscape:document-units="mm"
     inkscape:current-layer="g4470"
     showgrid="false"
     fit-margin-top="0"
     fit-margin-left="0"
     fit-margin-right="0"
     fit-margin-bottom="0"
     inkscape:window-width="956"
     inkscape:window-height="1021"
     inkscape:window-x="960"
     inkscape:window-y="37"
     inkscape:window-maximized="0" />
  <metadata
     id="metadata828">
    <rdf:RDF>
      <cc:Work
         rdf:about="">
        <dc:format>image/svg+xml</dc:format>
        <dc:type
           rdf:resource="http://purl.org/dc/dcmitype/StillImage" />
        <dc:title />
      </cc:Work>
    </rdf:RDF>
  </metadata>
  <g
     inkscape:label="Layer 1"
     inkscape:groupmode="layer"
     id="layer1"
     transform="translate(34.220687,204.39016)">
    <g
       id="g2109">
      <g
         id="g2119">
        <g
           id="g2129">
          <g
             id="g2170">
            <g
               id="g2199">
              <g
                 id="g2209">
                <g
                   id="g2219">
                  <g
                     id="g850">
                    <g
                       id="g860">
                      <g
                         id="g838"
                         inkscape:transform-center-x="-14.816667">
                        <g
                           id="g839">
                          <g
                             id="g849">
                            <g
                               id="g859">
                              <g
                                 id="g869">
                                <g
                                   id="g876">
                                <g
                                   id="g1821">
                                <g
                                   id="g836">
                                <g
                                   id="g4470">
                                <path
                                   inkscape:connector-curvature="0"
                                   style="fill:#1b458f;fill-opacity:1;stroke-width:0.80622584"
                                   d="m 315.77931,-204.39016 h 650 v 500 h -650 z"
                                   id="path1463-3" />
                                <path
                                   id="path1407"
                                   d="M -34.220687,-204.39016 V 295.60981 H 315.77914 L 415.77923,45.610339 315.77914,-204.38964 Z"
                                   style="opacity:1;fill:#ffcd00;fill-opacity:1;stroke:#cc9900;stroke-width:0;stroke-miterlimit:4;stroke-dasharray:none;stroke-opacity:1"
                                   inkscape:connector-curvature="0" />
                                <path
                                   inkscape:connector-curvature="0"
                                   style="opacity:0.98000004;fill:#00843d;fill-opacity:1;stroke:none;stroke-width:5;stroke-miterlimit:4;stroke-dasharray:none;stroke-opacity:1"
                                   d="M -34.220687,-204.39014 V 295.60984 H 265.77908 L 305.77924,170.60973 345.77937,45.61011 305.77924,-79.39002 265.77908,-204.39014 Z"
                                   id="rect4554-7" />
                                <path
                                   inkscape:connector-curvature="0"
                                   d="m 115.78004,-79.39016 25.3604,78.8505361 77.45981,-29.3348921 -45.83591,68.989951 71.23039,42.270462 -82.5168,7.178681 11.36302,82.045262 L 115.78004,110.57146 58.7191,170.60984 70.082132,88.564578 -12.434687,81.385897 58.795708,39.115435 12.959799,-29.874516 90.419625,-0.5396239 Z"
                                   id="Comwlth"
                                   style="fill:#ffffff;fill-opacity:1;stroke:none;stroke-width:11.41768074;stroke-miterlimit:4;stroke-dasharray:none;stroke-opacity:1" />
                                <path
                                   style="fill:#ffffff;fill-opacity:1;stroke:none;stroke-width:5.17461109;stroke-miterlimit:4;stroke-dasharray:none;stroke-opacity:1"
                                   d="m 696.36191,-184.39016 -10.07277,31.31833 -30.76573,-11.65122 18.205,27.40144 -28.29147,16.78917 32.77472,2.8516 -4.51325,32.586779 22.6635,-23.846119 22.66403,23.846119 -4.51325,-32.586779 32.77419,-2.8516 -28.29147,-16.78917 18.205,-27.40144 -30.76572,11.65122 z m 120.23445,110.465197 -10.07281,31.318324 -30.76571,-11.651738 18.20501,27.401957 -28.29147,16.789175 32.77418,2.8510927 -4.51271,32.5872903 22.66351,-23.8461184 22.66348,23.8461184 -4.51322,-32.5872903 32.77469,-2.8510927 -28.292,-16.789175 18.20554,-27.401957 -30.76571,11.651738 z M 561.0983,-37.854467 551.02552,-6.5361423 520.25978,-18.187355 538.46482,9.2140743 510.17331,26.003252 l 32.77418,2.851616 -4.5132,32.587299 22.66401,-23.846652 22.66351,23.846652 -4.51323,-32.587299 32.77471,-2.851616 -28.29201,-16.7891777 18.20553,-27.4014293 -30.76573,11.6512127 z m 182.84013,85.512754 -7.73487,18.961834 -20.4245,1.497378 15.64442,13.21598 -4.88849,19.887111 17.40344,-10.794351 17.40287,10.794351 -4.88794,-19.887111 15.6439,-13.21598 -20.42398,-1.497378 z m -47.57652,128.654923 -10.07277,31.31835 -30.76573,-11.65124 18.205,27.40197 -28.29147,16.78917 32.77472,2.85109 -4.51325,32.58729 22.6635,-23.84666 22.66403,23.84666 -4.51325,-32.58729 32.77419,-2.85109 -28.29147,-16.78917 18.205,-27.40197 -30.76572,11.65124 z"
                                   id="βCrucis"
                                   inkscape:connector-curvature="0" />
                                </g>
                                </g>
                                </g>
                                </g>
                              </g>
                            </g>
                          </g>
                        </g>
                      </g>
                    </g>
                  </g>
                </g>
              </g>
            </g>
          </g>
        </g>
      </g>
    </g>
  </g>
</svg>
