<?xml version="1.0" encoding="UTF-8" standalone="no"?>
<svg
   xmlns:dc="http://purl.org/dc/elements/1.1/"
   xmlns:cc="http://creativecommons.org/ns#"
   xmlns:rdf="http://www.w3.org/1999/02/22-rdf-syntax-ns#"
   xmlns:svg="http://www.w3.org/2000/svg"
   xmlns="http://www.w3.org/2000/svg"
   xmlns:sodipodi="http://sodipodi.sourceforge.net/DTD/sodipodi-0.dtd"
   xmlns:inkscape="http://www.inkscape.org/namespaces/inkscape"
   width="300"
   stroke-miterlimit="10"
   font-weight="400"
   height="324.83972"
   font-size="12"
   version="1.1"
   id="svg60"
   sodipodi:docname="Cyclophosphamide.svg"
   style="font-weight:400;font-size:12px;font-family:Dialog;color-interpolation:auto;stroke:#000000;stroke-linecap:square;stroke-miterlimit:10"
   inkscape:version="0.92.2 2405546, 2018-03-11">
  <metadata
     id="metadata66">
    <rdf:RDF>
      <cc:Work
         rdf:about="">
        <dc:format>image/svg+xml</dc:format>
        <dc:type
           rdf:resource="http://purl.org/dc/dcmitype/StillImage" />
        <dc:title></dc:title>
      </cc:Work>
    </rdf:RDF>
  </metadata>
  <defs
     id="defs64" />
  <sodipodi:namedview
     pagecolor="#ffffff"
     bordercolor="#666666"
     borderopacity="1"
     objecttolerance="10"
     gridtolerance="10"
     guidetolerance="10"
     inkscape:pageopacity="0"
     inkscape:pageshadow="2"
     inkscape:window-width="1600"
     inkscape:window-height="845"
     id="namedview62"
     showgrid="false"
     fit-margin-top="0"
     fit-margin-left="0"
     fit-margin-right="0"
     fit-margin-bottom="0"
     inkscape:zoom="0.32241803"
     inkscape:cx="310.09337"
     inkscape:cy="358.25115"
     inkscape:window-x="0"
     inkscape:window-y="0"
     inkscape:window-maximized="1"
     inkscape:current-layer="svg60" />
  <g
     transform="matrix(0.44377634,0,0,0.44377634,-3.3738356,-6.2296699)"
     id="g58">
    <defs
       id="defs26">
      <clipPath
         id="a">
        <path
           d="m -605.005,-253.038 h 695 v 753 h -695 z"
           id="path2"
           inkscape:connector-curvature="0" />
      </clipPath>
      <clipPath
         id="b">
        <path
           d="m -240.512,-299.745 h 695 v 753 h -695 z"
           id="path5"
           inkscape:connector-curvature="0" />
      </clipPath>
      <clipPath
         id="c">
        <path
           d="m -2.605,1.343 h 695 v 753 h -695 z"
           id="path8"
           inkscape:connector-curvature="0" />
      </clipPath>
      <clipPath
         id="d">
        <path
           d="m -151.64,-405.788 h 695 v 753 h -695 z"
           id="path11"
           inkscape:connector-curvature="0" />
      </clipPath>
      <clipPath
         id="e">
        <path
           d="m -55.702,-293.343 h 695 v 753 h -695 z"
           id="path14"
           inkscape:connector-curvature="0" />
      </clipPath>
      <clipPath
         id="f">
        <path
           d="m -266.042,-481.405 h 695 v 753 h -695 z"
           id="path17"
           inkscape:connector-curvature="0" />
      </clipPath>
      <clipPath
         id="g">
        <path
           d="m -17.562,-472.78 h 695 v 753 h -695 z"
           id="path20"
           inkscape:connector-curvature="0" />
      </clipPath>
      <clipPath
         id="h">
        <path
           d="m 61.467,8.233 c 11.89,0 21.528,9.638 21.528,21.528 v 43.057 c 0,11.89 -9.638,21.528 -21.528,21.528 H 31.133 C 19.243,94.346 9.605,84.708 9.605,72.818 V 29.76 c 0,-11.89 9.638,-21.528 21.528,-21.528 z m 602.4,254.382 c 11.89,0 21.528,9.638 21.528,21.528 V 327.2 c 0,11.89 -9.638,21.528 -21.528,21.528 h -30.334 c -11.89,0 -21.528,-9.639 -21.528,-21.528 v -43.057 c 0,-11.89 9.638,-21.528 21.528,-21.528 z M 99.725,303.896 c 11.62,0 21.04,9.42 21.04,21.04 v 42.08 c 0,11.62 -9.42,21.04 -21.04,21.04 H 81.742 c -11.62,0 -21.04,-9.42 -21.04,-21.04 v -42.08 c 0,-11.62 9.42,-21.04 21.04,-21.04 z m 178.622,7.303 c 11.197,0 20.274,9.076 20.274,20.273 v 40.547 c 0,11.197 -9.077,20.273 -20.273,20.273 h -8.563 c -11.197,0 -20.273,-9.076 -20.273,-20.273 v -40.547 c 0,-11.197 9.076,-20.273 20.273,-20.273 z m -99.09,106.042 c 11.197,0 20.273,9.077 20.273,20.274 v 40.547 c 0,11.196 -9.076,20.273 -20.273,20.273 h -1.344 c -11.197,0 -20.273,-9.077 -20.273,-20.273 v -40.547 c 0,-11.197 9.076,-20.274 20.273,-20.274 z m -117.672,66.09 c 11.62,0 21.04,9.42 21.04,21.04 v 42.081 c 0,11.62 -9.42,21.04 -21.04,21.04 H 43.602 c -11.62,0 -21.04,-9.42 -21.04,-21.04 v -42.08 c 0,-11.62 9.42,-21.04 21.04,-21.04 z m 309.637,9.527 c 11.197,0 20.273,9.076 20.273,20.273 v 40.547 c 0,11.197 -9.076,20.274 -20.273,20.274 h -75.906 c -11.197,0 -20.274,-9.077 -20.274,-20.274 v -40.547 c 0,-11.196 9.077,-20.273 20.274,-20.273 z M 0,0 V 753 H 695 V 0 Z"
           id="path23"
           inkscape:connector-curvature="0" />
      </clipPath>
    </defs>
    <text
       y="83"
       clip-path="url(#a)"
       transform="translate(605.005,253.038)"
       font-size="89"
       id="text28"
       style="font-size:89px;font-family:sans-serif;stroke:none;text-rendering:geometricPrecision">Cl</text>
    <text
       y="83"
       clip-path="url(#b)"
       transform="translate(240.512,299.745)"
       font-size="89"
       id="text30"
       style="font-size:89px;font-family:sans-serif;stroke:none;text-rendering:geometricPrecision">N</text>
    <text
       y="83"
       clip-path="url(#c)"
       transform="translate(2.605,-1.343)"
       font-size="89"
       id="text32"
       style="font-size:89px;font-family:sans-serif;stroke:none;text-rendering:geometricPrecision">Cl</text>
    <text
       y="83"
       clip-path="url(#d)"
       transform="translate(151.64,405.788)"
       font-size="89"
       id="text34"
       style="font-size:89px;font-family:sans-serif;stroke:none;text-rendering:geometricPrecision">P</text>
    <text
       y="83"
       clip-path="url(#e)"
       transform="translate(55.702,293.343)"
       font-size="89"
       id="text36"
       style="font-size:89px;font-family:sans-serif;stroke:none;text-rendering:geometricPrecision">O</text>
    <text
       y="83"
       clip-path="url(#f)"
       transform="translate(266.042,481.405)"
       font-size="89"
       id="text38"
       style="font-size:89px;font-family:sans-serif;stroke:none;text-rendering:geometricPrecision">NH</text>
    <text
       y="83"
       clip-path="url(#g)"
       transform="translate(17.562,472.78)"
       font-size="89"
       id="text40"
       style="font-size:89px;font-family:sans-serif;stroke:none;text-rendering:geometricPrecision">O</text>
    <path
       d="M 599.007,297.546 508.5,278.308 a 3.0031494,3.0031494 0 1 1 1.249,-5.875 l 90.508,19.238 a 3.0031494,3.0031494 0 1 1 -1.249,5.875 z"
       clip-path="url(#h)"
       font-size="89"
       id="path42"
       inkscape:connector-curvature="0"
       style="font-size:89px;font-family:sans-serif;stroke:none;text-rendering:geometricPrecision" />
    <path
       d="m 511.355,277.38 -95.48,106.043 a 3.0033172,3.0033172 0 1 1 -4.464,-4.019 l 95.481,-106.043 a 3.003,3.003 0 0 1 4.463,4.019 z"
       clip-path="url(#h)"
       font-size="89"
       id="path44"
       inkscape:connector-curvature="0"
       style="font-size:89px;font-family:sans-serif;stroke:none;text-rendering:geometricPrecision" />
    <path
       d="M 413.018,384.35 310.37,362.533 a 3.0030455,3.0030455 0 0 1 1.248,-5.875 l 102.649,21.82 a 3.003,3.003 0 0 1 -1.249,5.874 z m -157.712,-80.625 -28.19,-86.762 a 3.003,3.003 0 1 1 5.711,-1.856 l 28.19,86.762 a 3.003,3.003 0 0 1 -5.71,1.856 z"
       clip-path="url(#h)"
       font-size="89"
       id="path46"
       inkscape:connector-curvature="0"
       style="font-size:89px;font-family:sans-serif;stroke:none;text-rendering:geometricPrecision" />
    <path
       d="M 229.347,218.972 89.771,189.304 a 3.003,3.003 0 0 1 1.248,-5.874 l 139.577,29.668 a 3.003,3.003 0 0 1 -1.249,5.874 z"
       clip-path="url(#h)"
       font-size="89"
       id="path48"
       inkscape:connector-curvature="0"
       style="font-size:89px;font-family:sans-serif;stroke:none;text-rendering:geometricPrecision" />
    <path
       d="M 87.54,187.295 61.394,106.827 a 3.003,3.003 0 1 1 5.711,-1.855 l 26.146,80.467 a 3.003,3.003 0 1 1 -5.712,1.856 z m 157.193,201.516 -34.824,38.676 a 3.0032802,3.0032802 0 0 1 -4.463,-4.02 l 34.824,-38.674 a 3.003,3.003 0 1 1 4.463,4.018 z m -108.527,40.682 a 3.003,3.003 0 0 0 4.733,-3.697 L 115.98,393.85 a 3.003,3.003 0 0 0 -4.733,3.697 z m 20.445,-15.973 a 3.003,3.003 0 0 0 4.732,-3.697 l -24.958,-31.945 a 3.003,3.003 0 0 0 -4.732,3.697 z m 56.249,62.169 51.956,32.466 a 3.003,3.003 0 1 1 -3.183,5.093 l -51.956,-32.466 a 3.003,3.003 0 1 1 3.182,-5.093 z m 87.861,110.419 -3.143,90.009 a 3.003,3.003 0 0 1 -6.002,-0.21 l 3.143,-90.008 a 3.003,3.003 0 0 1 6.002,0.21 z"
       clip-path="url(#h)"
       font-size="89"
       id="path50"
       inkscape:connector-curvature="0"
       style="font-size:89px;font-family:sans-serif;stroke:none;text-rendering:geometricPrecision" />
    <path
       d="m 296.027,678.663 -125.992,66.991 a 3.003,3.003 0 1 1 -2.82,-5.302 l 125.992,-66.991 a 3.0030904,3.0030904 0 0 1 2.82,5.303 z"
       clip-path="url(#h)"
       font-size="89"
       id="path52"
       inkscape:connector-curvature="0"
       style="font-size:89px;font-family:sans-serif;stroke:none;text-rendering:geometricPrecision" />
    <path
       d="M 167.034,745.55 46.022,669.933 a 3.003,3.003 0 0 1 3.183,-5.093 l 121.011,75.617 a 3.003,3.003 0 0 1 -3.182,5.093 z"
       clip-path="url(#h)"
       font-size="89"
       id="path54"
       inkscape:connector-curvature="0"
       style="font-size:89px;font-family:sans-serif;stroke:none;text-rendering:geometricPrecision" />
    <path
       d="m 44.612,667.282 3.066,-87.786 a 3.003,3.003 0 0 1 6.002,0.21 l -3.066,87.785 a 3.003,3.003 0 0 1 -6.002,-0.21 z M 147.034,477.965 96.05,505.074 a 3.0030904,3.0030904 0 1 1 -2.82,-5.303 l 50.985,-27.109 a 3.0030904,3.0030904 0 0 1 2.82,5.303 z"
       clip-path="url(#h)"
       font-size="89"
       id="path56"
       inkscape:connector-curvature="0"
       style="font-size:89px;font-family:sans-serif;stroke:none;text-rendering:geometricPrecision" />
  </g>
</svg>
