<?xml version="1.0" encoding="UTF-8" standalone="no"?>
<svg
   xmlns:dc="http://purl.org/dc/elements/1.1/"
   xmlns:cc="http://creativecommons.org/ns#"
   xmlns:rdf="http://www.w3.org/1999/02/22-rdf-syntax-ns#"
   xmlns:svg="http://www.w3.org/2000/svg"
   xmlns="http://www.w3.org/2000/svg"
   xmlns:sodipodi="http://sodipodi.sourceforge.net/DTD/sodipodi-0.dtd"
   xmlns:inkscape="http://www.inkscape.org/namespaces/inkscape"
   width="282.14413"
   stroke-miterlimit="10"
   font-weight="normal"
   height="329.8671"
   font-style="normal"
   font-size="12px"
   id="svg2"
   version="1.1"
   inkscape:version="0.91 r13725"
   sodipodi:docname="Cyclophosphamide.svg"
   style="font-style:normal;font-weight:normal;font-size:12px;font-family:Dialog;color-interpolation:auto;fill:#000000;fill-opacity:1;stroke:#000000;stroke-width:1;stroke-linecap:square;stroke-linejoin:miter;stroke-miterlimit:10;stroke-dasharray:none;stroke-dashoffset:0;stroke-opacity:1;color-rendering:auto;image-rendering:auto;shape-rendering:auto;text-rendering:auto">
  <metadata
     id="metadata118">
    <rdf:RDF>
      <cc:Work
         rdf:about="">
        <dc:format>image/svg+xml</dc:format>
        <dc:type
           rdf:resource="http://purl.org/dc/dcmitype/StillImage" />
        <dc:title></dc:title>
      </cc:Work>
    </rdf:RDF>
  </metadata>
  <sodipodi:namedview
     pagecolor="#ffffff"
     bordercolor="#666666"
     borderopacity="1"
     objecttolerance="10"
     gridtolerance="10"
     guidetolerance="10"
     inkscape:pageopacity="0"
     inkscape:pageshadow="2"
     inkscape:window-width="640"
     inkscape:window-height="480"
     id="namedview116"
     showgrid="false"
     fit-margin-top="0"
     fit-margin-left="0"
     fit-margin-right="0"
     fit-margin-bottom="0"
     inkscape:zoom="0.66855524"
     inkscape:cx="141.74421"
     inkscape:cy="167.0106"
     inkscape:window-x="0"
     inkscape:window-y="0"
     inkscape:window-maximized="0"
     inkscape:current-layer="svg2" />
  <!--Generated by Marvin with Batik SVG Generator
MolSource:
<?xml version="1.0" encoding="UTF-8"?><cml xmlns="http://www.chemaxon.com" xmlns:xsi="http://www.w3.org/2001/XMLSchema-instance" xsi:schemaLocation="http://www.chemaxon.com/marvin/schema/mrvSchema_18_11_0.xsd" version="ChemAxon file format v18.11.0, generated by v18.11.0">
<MDocument><MChemicalStruct><molecule molID="m1"><propertyList><property dictRef="type" title="type"><scalar>common</scalar></property></propertyList><atomArray atomID="a1 a2 a3 a4 a5 a6 a7 a8 a9 a10 a11 a12 a13 a14" elementType="P O C C C N O N C C C C Cl Cl" x2="-5.104166507720947 -6.437835848769206 -6.437835848769206 -5.104166507720947 -3.7704971666726887 -3.7704971666726887 -6.134627641513589 -3.959723476485773 -4.27990748034512 -2.4950964413912398 -1.3506534101560566 -3.135464449109936 0.11397362493847718 -3.4556484529692826" y2="6.820601723411812E-4 -0.7693348803866993 -2.30936876150478 -3.0793857020638207 -2.30936876150478 -0.7693348803866993 1.1451250914075257 1.031143193964977 2.5374904990950373 0.5552570226275597 1.5857181564201985 3.5679516328876764 1.1098319850827831 5.074298938017729"></atomArray><bondArray><bond id="b1" atomRefs2="a1 a2" order="1"></bond><bond id="b2" atomRefs2="a2 a3" order="1"></bond><bond id="b3" atomRefs2="a3 a4" order="1"></bond><bond id="b4" atomRefs2="a4 a5" order="1"></bond><bond id="b5" atomRefs2="a5 a6" order="1"></bond><bond id="b6" atomRefs2="a1 a6" order="1"></bond><bond id="b7" atomRefs2="a1 a7" order="2"></bond><bond id="b8" atomRefs2="a1 a8" order="1"></bond><bond id="b9" atomRefs2="a8 a9" order="1"></bond><bond id="b10" atomRefs2="a8 a10" order="1"></bond><bond id="b11" atomRefs2="a10 a11" order="1"></bond><bond id="b12" atomRefs2="a9 a12" order="1"></bond><bond id="b13" atomRefs2="a11 a13" order="1"></bond><bond id="b14" atomRefs2="a12 a14" order="1"></bond></bondArray></molecule></MChemicalStruct></MDocument>
</cml>
-->
  <defs
     id="genericDefs" />
  <g
     id="g5"
     transform="translate(-8.2557945,-13.643516)">
    <defs
       id="1369136099874-defs1">
      <clipPath
         clipPathUnits="userSpaceOnUse"
         id="1369136099657-clipPath1">
        <path
           d="M 0,0 300,0 300,353 0,353 0,0 Z"
           id="path9"
           inkscape:connector-curvature="0" />
      </clipPath>
      <clipPath
         clipPathUnits="userSpaceOnUse"
         id="136913609999-clipPath1">
        <path
           d="m -60.2372,-199.6826 300,0 0,353 -300,0 0,-353 z"
           id="path12"
           inkscape:connector-curvature="0" />
      </clipPath>
      <clipPath
         clipPathUnits="userSpaceOnUse"
         id="1369136099454-clipPath1">
        <path
           d="m -6.3139,-229.3277 300,0 0,353 -300,0 0,-353 z"
           id="path15"
           inkscape:connector-curvature="0" />
      </clipPath>
      <clipPath
         clipPathUnits="userSpaceOnUse"
         id="1369136099986-clipPath1">
        <path
           d="m -110.0434,-229.3277 300,0 0,353 -300,0 0,-353 z"
           id="path18"
           inkscape:connector-curvature="0" />
      </clipPath>
      <clipPath
         clipPathUnits="userSpaceOnUse"
         id="1369136099619-clipPath1">
        <path
           d="m -17.9872,-155.6225 300,0 0,353 -300,0 0,-353 z"
           id="path21"
           inkscape:connector-curvature="0" />
      </clipPath>
      <clipPath
         clipPathUnits="userSpaceOnUse"
         id="1369136099932-clipPath1">
        <path
           d="m -102.7583,-160.0107 300,0 0,353 -300,0 0,-353 z"
           id="path24"
           inkscape:connector-curvature="0" />
      </clipPath>
      <clipPath
         clipPathUnits="userSpaceOnUse"
         id="1369136099156-clipPath1">
        <path
           d="m -254.4048,-156.9813 300,0 0,353 -300,0 0,-353 z"
           id="path27"
           inkscape:connector-curvature="0" />
      </clipPath>
      <clipPath
         clipPathUnits="userSpaceOnUse"
         id="1369136099777-clipPath1">
        <path
           d="m -116.9773,-4.3525 300,0 0,353 -300,0 0,-353 z"
           id="path30"
           inkscape:connector-curvature="0" />
      </clipPath>
    </defs>
    <g
       id="g32"
       style="text-rendering:geometricPrecision">
      <path
         d="m 58.4152,233.9201 0,0 -16.7646,9.6793 c -0.5967,0.3446 -1.3598,0.1401 -1.7043,-0.4566 -0.3446,-0.5967 -0.1401,-1.3598 0.4566,-1.7044 l 0,0 16.7647,-9.6793 c 0.5967,-0.3445 1.3598,-0.1401 1.7043,0.4567 0.3445,0.5967 0.1401,1.3598 -0.4567,1.7043 z"
         clip-path="url(#1369136099657-clipPath1)"
         id="path34"
         inkscape:connector-curvature="0"
         style="stroke:none" />
    </g>
    <g
       id="g36"
       style="text-rendering:geometricPrecision">
      <path
         d="m 23.5538,276.666 0,0 0,35.9517 c 0,0.6891 -0.5586,1.2477 -1.2477,1.2477 -0.6891,0 -1.2477,-0.5586 -1.2477,-1.2477 l 0,0 0,-35.9517 c 0,-0.6891 0.5586,-1.2477 1.2477,-1.2477 0.6891,0 1.2477,0.5586 1.2477,1.2477 z"
         clip-path="url(#1369136099657-clipPath1)"
         id="path38"
         inkscape:connector-curvature="0"
         style="stroke:none" />
    </g>
    <g
       id="g40"
       style="text-rendering:geometricPrecision">
      <path
         d="m 22.9299,311.5372 0,0 51.3452,29.6451 c 0.5968,0.3445 0.8012,1.1076 0.4567,1.7043 -0.3445,0.5967 -1.1076,0.8012 -1.7043,0.4566 l 0,0 -51.3452,-29.645 c -0.5968,-0.3445 -0.8012,-1.1076 -0.4567,-1.7043 0.3445,-0.5968 1.1076,-0.8012 1.7043,-0.4567 z"
         clip-path="url(#1369136099657-clipPath1)"
         id="path42"
         inkscape:connector-curvature="0"
         style="stroke:none" />
    </g>
    <g
       id="g44"
       style="text-rendering:geometricPrecision">
      <path
         d="m 73.0275,341.1823 0,0 51.3451,-29.6451 c 0.5968,-0.3445 1.3598,-0.1401 1.7044,0.4567 0.3445,0.5967 0.1401,1.3598 -0.4567,1.7043 l 0,0 -51.3452,29.645 c -0.5967,0.3446 -1.3598,0.1401 -1.7043,-0.4566 -0.3445,-0.5967 -0.1401,-1.3598 0.4567,-1.7043 z"
         clip-path="url(#1369136099657-clipPath1)"
         id="path46"
         inkscape:connector-curvature="0"
         style="stroke:none" />
    </g>
    <g
       id="g48"
       style="text-rendering:geometricPrecision">
      <path
         d="m 123.7488,312.6177 0,0 0,-36.6724 c 0,-0.6891 0.5586,-1.2477 1.2477,-1.2477 0.689,0 1.2476,0.5586 1.2476,1.2477 l 0,0 0,36.6724 c 0,0.6891 -0.5586,1.2477 -1.2476,1.2477 -0.6891,0 -1.2477,-0.5586 -1.2477,-1.2477 z"
         clip-path="url(#1369136099657-clipPath1)"
         id="path50"
         inkscape:connector-curvature="0"
         style="stroke:none" />
    </g>
    <g
       id="g52"
       style="text-rendering:geometricPrecision">
      <path
         d="m 90.135,231.7591 0,0 19.0864,11.0198 c 0.5967,0.3446 0.8012,1.1076 0.4566,1.7044 -0.3445,0.5967 -1.1076,0.8012 -1.7043,0.4566 l 0,0 -19.0864,-11.0198 c -0.5967,-0.3445 -0.8011,-1.1076 -0.4566,-1.7043 0.3445,-0.5968 1.1076,-0.8012 1.7043,-0.4567 z"
         clip-path="url(#1369136099657-clipPath1)"
         id="path54"
         inkscape:connector-curvature="0"
         style="stroke:none" />
    </g>
    <g
       id="g56"
       style="text-rendering:geometricPrecision">
      <path
         d="m 54.2302,212.0329 c 0.461,0.5121 1.2499,0.5534 1.762,0.0924 0.5121,-0.4611 0.5534,-1.25 0.0923,-1.7621 l -9.4564,-10.5024 c -0.4611,-0.5121 -1.25,-0.5534 -1.7621,-0.0924 -0.512,0.4611 -0.5534,1.25 -0.0923,1.7621 z m 8.0109,-7.213 c 0.4611,0.512 1.25,0.5534 1.762,0.0923 0.5121,-0.4611 0.5534,-1.25 0.0924,-1.762 L 54.639,192.6477 c -0.4611,-0.5121 -1.25,-0.5534 -1.762,-0.0923 -0.5121,0.461 -0.5534,1.2499 -0.0924,1.762 z"
         clip-path="url(#1369136099657-clipPath1)"
         id="path58"
         inkscape:connector-curvature="0"
         style="stroke:none" />
    </g>
    <g
       id="g60"
       style="text-rendering:geometricPrecision">
      <path
         d="m 87.4618,209.5687 0,0 14.3768,-12.9449 c 0.5121,-0.4611 1.3009,-0.4197 1.762,0.0923 0.4611,0.5121 0.4197,1.301 -0.0923,1.7621 l 0,0 -14.3768,12.9449 c -0.5121,0.461 -1.301,0.4197 -1.762,-0.0924 -0.4611,-0.5121 -0.4198,-1.3009 0.0923,-1.762 z"
         clip-path="url(#1369136099657-clipPath1)"
         id="path62"
         inkscape:connector-curvature="0"
         style="stroke:none" />
    </g>
    <g
       id="g64"
       style="text-rendering:geometricPrecision">
      <path
         d="m 111.7618,162.021 0,0 -7.5976,-35.744 c -0.1433,-0.674 0.287,-1.3366 0.961,-1.4798 0.674,-0.1433 1.3365,0.287 1.4798,0.961 l 0,0 7.5976,35.744 c 0.1433,0.674 -0.287,1.3365 -0.961,1.4798 -0.674,0.1432 -1.3365,-0.287 -1.4798,-0.961 z"
         clip-path="url(#1369136099657-clipPath1)"
         id="path66"
         inkscape:connector-curvature="0"
         style="stroke:none" />
    </g>
    <g
       id="g68"
       style="text-rendering:geometricPrecision">
      <path
         d="m 134.682,188.2129 0,0 39.8019,12.9325 c 0.6554,0.2129 1.014,0.9167 0.8011,1.5721 -0.213,0.6553 -0.9168,1.014 -1.5722,0.801 l 0,0 -39.8019,-12.9324 c -0.6553,-0.2129 -1.014,-0.9168 -0.801,-1.5721 0.2129,-0.6554 0.9168,-1.014 1.5721,-0.8011 z"
         clip-path="url(#1369136099657-clipPath1)"
         id="path70"
         inkscape:connector-curvature="0"
         style="stroke:none" />
    </g>
    <g
       id="g72"
       style="text-rendering:geometricPrecision">
      <path
         d="m 173.2635,201.4048 0,0 44.0602,-39.672 c 0.512,-0.461 1.3009,-0.4197 1.762,0.0924 0.4611,0.512 0.4197,1.3009 -0.0924,1.762 l 0,0 -44.0601,39.6719 c -0.5121,0.4611 -1.3009,0.4198 -1.762,-0.0923 -0.4611,-0.5121 -0.4198,-1.301 0.0923,-1.762 z"
         clip-path="url(#1369136099657-clipPath1)"
         id="path74"
         inkscape:connector-curvature="0"
         style="stroke:none" />
    </g>
    <g
       id="g76"
       style="text-rendering:geometricPrecision">
      <path
         d="m 104.5498,125.0904 0,0 44.0601,-39.672 c 0.512,-0.461 1.3009,-0.4197 1.762,0.0924 0.4611,0.5121 0.4197,1.301 -0.0923,1.762 l 0,0 -44.0602,39.672 c -0.512,0.461 -1.3009,0.4197 -1.762,-0.0924 -0.4611,-0.5121 -0.4197,-1.301 0.0924,-1.762 z"
         clip-path="url(#1369136099657-clipPath1)"
         id="path78"
         inkscape:connector-curvature="0"
         style="stroke:none" />
    </g>
    <g
       id="g80"
       style="text-rendering:geometricPrecision">
      <path
         d="m 218.5441,161.4734 0,0 34.1144,11.0845 c 0.6553,0.2129 1.0139,0.9168 0.801,1.5721 -0.2129,0.6554 -0.9168,1.014 -1.5721,0.8011 l 0,0 -34.1145,-11.0845 c -0.6553,-0.2129 -1.0139,-0.9168 -0.801,-1.5721 0.2129,-0.6554 0.9168,-1.014 1.5722,-0.8011 z"
         clip-path="url(#1369136099657-clipPath1)"
         id="path82"
         inkscape:connector-curvature="0"
         style="stroke:none" />
    </g>
    <g
       id="g84"
       style="text-rendering:geometricPrecision">
      <path
         d="m 148.2243,86.605 0,0 -7.1909,-33.8306 c -0.1433,-0.674 0.287,-1.3366 0.961,-1.4798 0.674,-0.1433 1.3365,0.2869 1.4798,0.961 l 0,0 7.1909,33.8306 c 0.1433,0.674 -0.287,1.3366 -0.961,1.4798 -0.674,0.1433 -1.3365,-0.2869 -1.4798,-0.961 z"
         clip-path="url(#1369136099657-clipPath1)"
         id="path86"
         inkscape:connector-curvature="0"
         style="stroke:none" />
    </g>
    <g
       font-size="41px"
       transform="translate(60.2372,199.6826)"
       id="g88"
       style="font-size:41px;font-family:'Liberation Sans';text-rendering:geometricPrecision">
      <text
         x="0"
         xml:space="preserve"
         y="39"
         clip-path="url(#136913609999-clipPath1)"
         id="text90"
         style="stroke:none">P</text>
    </g>
    <g
       font-size="41px"
       transform="translate(6.3139,229.3277)"
       id="g92"
       style="font-size:41px;font-family:'Liberation Sans';text-rendering:geometricPrecision">
      <text
         x="0"
         xml:space="preserve"
         y="39"
         clip-path="url(#1369136099454-clipPath1)"
         id="text94"
         style="stroke:none">O</text>
    </g>
    <g
       font-size="41px"
       transform="translate(110.0434,229.3277)"
       id="g96"
       style="font-size:41px;font-family:'Liberation Sans';text-rendering:geometricPrecision">
      <text
         x="0"
         xml:space="preserve"
         y="39"
         clip-path="url(#1369136099986-clipPath1)"
         id="text98"
         style="stroke:none">NH</text>
    </g>
    <g
       font-size="41px"
       transform="translate(17.9872,155.6225)"
       id="g100"
       style="font-size:41px;font-family:'Liberation Sans';text-rendering:geometricPrecision">
      <text
         x="0"
         xml:space="preserve"
         y="39"
         clip-path="url(#1369136099619-clipPath1)"
         id="text102"
         style="stroke:none">O</text>
    </g>
    <g
       font-size="41px"
       transform="translate(102.7583,160.0107)"
       id="g104"
       style="font-size:41px;font-family:'Liberation Sans';text-rendering:geometricPrecision">
      <text
         x="0"
         xml:space="preserve"
         y="39"
         clip-path="url(#1369136099932-clipPath1)"
         id="text106"
         style="stroke:none">N</text>
    </g>
    <g
       font-size="41px"
       transform="translate(254.4048,156.9813)"
       id="g108"
       style="font-size:41px;font-family:'Liberation Sans';text-rendering:geometricPrecision">
      <text
         x="0"
         xml:space="preserve"
         y="39"
         clip-path="url(#1369136099156-clipPath1)"
         id="text110"
         style="stroke:none">Cl</text>
    </g>
    <g
       font-size="41px"
       transform="translate(116.9773,4.3525)"
       id="g112"
       style="font-size:41px;font-family:'Liberation Sans';text-rendering:geometricPrecision">
      <text
         x="0"
         xml:space="preserve"
         y="39"
         clip-path="url(#1369136099777-clipPath1)"
         id="text114"
         style="stroke:none">Cl</text>
    </g>
  </g>
</svg>
