<?xml version="1.0" encoding="UTF-8" standalone="no"?>
<svg
   xmlns:dc="http://purl.org/dc/elements/1.1/"
   xmlns:cc="http://creativecommons.org/ns#"
   xmlns:rdf="http://www.w3.org/1999/02/22-rdf-syntax-ns#"
   xmlns:svg="http://www.w3.org/2000/svg"
   xmlns="http://www.w3.org/2000/svg"
   xmlns:sodipodi="http://sodipodi.sourceforge.net/DTD/sodipodi-0.dtd"
   xmlns:inkscape="http://www.inkscape.org/namespaces/inkscape"
   width="300"
   stroke-miterlimit="10"
   font-weight="normal"
   height="350.19516"
   font-style="normal"
   font-size="12px"
   version="1.1"
   id="svg114"
   sodipodi:docname="Cyclophosphamide.svg"
   style="font-style:normal;font-weight:normal;font-size:12px;font-family:Dialog;color-interpolation:auto;fill:#000000;fill-opacity:1;stroke:#000000;stroke-width:1;stroke-linecap:square;stroke-linejoin:miter;stroke-miterlimit:10;stroke-dasharray:none;stroke-dashoffset:0;stroke-opacity:1;color-rendering:auto;image-rendering:auto;shape-rendering:auto;text-rendering:auto"
   inkscape:version="0.92.2 2405546, 2018-03-11">
  <metadata
     id="metadata118">
    <rdf:RDF>
      <cc:Work
         rdf:about="">
        <dc:format>image/svg+xml</dc:format>
        <dc:type
           rdf:resource="http://purl.org/dc/dcmitype/StillImage" />
        <dc:title></dc:title>
      </cc:Work>
    </rdf:RDF>
  </metadata>
  <sodipodi:namedview
     pagecolor="#ffffff"
     bordercolor="#666666"
     borderopacity="1"
     objecttolerance="10"
     gridtolerance="10"
     guidetolerance="10"
     inkscape:pageopacity="0"
     inkscape:pageshadow="2"
     inkscape:window-width="850"
     inkscape:window-height="480"
     id="namedview116"
     showgrid="false"
     fit-margin-top="0"
     fit-margin-left="0"
     fit-margin-right="0"
     fit-margin-bottom="0"
     inkscape:zoom="0.28095238"
     inkscape:cx="337.5336"
     inkscape:cy="398.50254"
     inkscape:window-x="0"
     inkscape:window-y="0"
     inkscape:window-maximized="0"
     inkscape:current-layer="svg114" />
  <!--Generated by Marvin with Batik SVG Generator
MolSource:
<?xml version="1.0" encoding="UTF-8"?><cml xmlns="http://www.chemaxon.com" xmlns:xsi="http://www.w3.org/2001/XMLSchema-instance" xsi:schemaLocation="http://www.chemaxon.com/marvin/schema/mrvSchema_18_11_0.xsd" version="ChemAxon file format v18.11.0, generated by v18.11.0">
<MDocument><MChemicalStruct><molecule molID="m1"><propertyList><property dictRef="type" title="type"><scalar>common</scalar></property></propertyList><atomArray atomID="a1 a2 a3 a4 a5 a6 a7 a8 a9 a10 a11 a12 a13 a14" elementType="P O C C C N O N C C C C Cl Cl" x2="-5.104166507720947 -6.437835848769206 -6.437835848769206 -5.104166507720947 -3.7704971666726887 -3.7704971666726887 -6.134627641513589 -3.959723476485773 -4.27990748034512 -2.4950964413912398 -1.3506534101560566 -3.135464449109936 0.11397362493847718 -3.4556484529692826" y2="6.820601723411812E-4 -0.7693348803866993 -2.30936876150478 -3.0793857020638207 -2.30936876150478 -0.7693348803866993 1.1451250914075257 1.031143193964977 2.5374904990950373 0.5552570226275597 1.5857181564201985 3.5679516328876764 1.1098319850827831 5.074298938017729"></atomArray><bondArray><bond id="b1" atomRefs2="a1 a2" order="1"></bond><bond id="b2" atomRefs2="a2 a3" order="1"></bond><bond id="b3" atomRefs2="a3 a4" order="1"></bond><bond id="b4" atomRefs2="a4 a5" order="1"></bond><bond id="b5" atomRefs2="a5 a6" order="1"></bond><bond id="b6" atomRefs2="a1 a6" order="1"></bond><bond id="b7" atomRefs2="a1 a7" order="2"></bond><bond id="b8" atomRefs2="a1 a8" order="1"></bond><bond id="b9" atomRefs2="a8 a9" order="1"></bond><bond id="b10" atomRefs2="a8 a10" order="1"></bond><bond id="b11" atomRefs2="a10 a11" order="1"></bond><bond id="b12" atomRefs2="a9 a12" order="1"></bond><bond id="b13" atomRefs2="a11 a13" order="1"></bond><bond id="b14" atomRefs2="a12 a14" order="1"></bond></bondArray></molecule></MChemicalStruct></MDocument>
</cml>
-->
  <defs
     id="genericDefs" />
  <g
     id="g112"
     transform="matrix(0.44509626,0,0,0.44509626,-8.8869707,-14.117243)">
    <defs
       id="136913609911-defs1">
      <clipPath
         clipPathUnits="userSpaceOnUse"
         id="1369136099107-clipPath1">
        <path
           d="M 0,0 H 715 V 840 H 0 Z"
           id="path3"
           inkscape:connector-curvature="0" />
      </clipPath>
      <clipPath
         clipPathUnits="userSpaceOnUse"
         id="1369136099498-clipPath1">
        <path
           d="m -143.0886,-476.3568 h 715 v 840 h -715 z"
           id="path6"
           inkscape:connector-curvature="0" />
      </clipPath>
      <clipPath
         clipPathUnits="userSpaceOnUse"
         id="1369136099397-clipPath1">
        <path
           d="m -15.3248,-547.0245 h 715 v 840 h -715 z"
           id="path9"
           inkscape:connector-curvature="0" />
      </clipPath>
      <clipPath
         clipPathUnits="userSpaceOnUse"
         id="1369136099603-clipPath1">
        <path
           d="m -262.6961,-547.0245 h 715 v 840 h -715 z"
           id="path12"
           inkscape:connector-curvature="0" />
      </clipPath>
      <clipPath
         clipPathUnits="userSpaceOnUse"
         id="1369136099856-clipPath1">
        <path
           d="m -43.1516,-371.3263 h 715 v 840 h -715 z"
           id="path15"
           inkscape:connector-curvature="0" />
      </clipPath>
      <clipPath
         clipPathUnits="userSpaceOnUse"
         id="1369136099627-clipPath1">
        <path
           d="m -245.33,-381.7869 h 715 v 840 h -715 z"
           id="path18"
           inkscape:connector-curvature="0" />
      </clipPath>
      <clipPath
         clipPathUnits="userSpaceOnUse"
         id="1369136099724-clipPath1">
        <path
           d="m -607.9408,-374.5653 h 715 v 840 h -715 z"
           id="path21"
           inkscape:connector-curvature="0" />
      </clipPath>
      <clipPath
         clipPathUnits="userSpaceOnUse"
         id="1369136099784-clipPath1">
        <path
           d="m -280.3412,-10.729 h 715 v 839.9999 h -715 z"
           id="path24"
           inkscape:connector-curvature="0" />
      </clipPath>
    </defs>
    <g
       id="g30"
       style="text-rendering:geometricPrecision">
      <path
         d="m 139.2859,557.2961 v 0 l -39.8087,22.9843 c -1.4225,0.8213 -3.2415,0.3339 -4.0628,-1.0886 -0.8213,-1.4225 -0.3339,-3.2415 1.0886,-4.0628 v 0 l 39.8086,-22.9842 c 1.4226,-0.8213 3.2415,-0.3339 4.0629,1.0885 0.8213,1.4226 0.3339,3.2416 -1.0886,4.0628 z"
         clip-path="url(#1369136099107-clipPath1)"
         id="path28"
         inkscape:connector-curvature="0"
         style="stroke:none" />
    </g>
    <g
       id="g34"
       style="text-rendering:geometricPrecision">
      <path
         d="m 56.2443,659.2571 v 0 85.6029 c 0,1.6426 -1.3316,2.9742 -2.9741,2.9742 -1.6426,0 -2.9742,-1.3316 -2.9742,-2.9742 v 0 -85.6029 c 0,-1.6425 1.3316,-2.9741 2.9742,-2.9741 1.6425,0 2.9741,1.3316 2.9741,2.9741 z"
         clip-path="url(#1369136099107-clipPath1)"
         id="path32"
         inkscape:connector-curvature="0"
         style="stroke:none" />
    </g>
    <g
       id="g38"
       style="text-rendering:geometricPrecision">
      <path
         d="m 54.7573,742.2844 v 0 l 122.3966,70.6677 c 1.4225,0.8213 1.9099,2.6404 1.0885,4.0629 -0.8213,1.4224 -2.6402,1.9099 -4.0628,1.0885 v 0 L 51.783,747.4357 c -1.4225,-0.8213 -1.9098,-2.6402 -1.0885,-4.0628 0.8213,-1.4225 2.6403,-1.9098 4.0628,-1.0885 z"
         clip-path="url(#1369136099107-clipPath1)"
         id="path36"
         inkscape:connector-curvature="0"
         style="stroke:none" />
    </g>
    <g
       id="g42"
       style="text-rendering:geometricPrecision">
      <path
         d="m 174.1796,812.9521 v 0 l 122.3966,-70.6677 c 1.4225,-0.8213 3.2415,-0.334 4.0628,1.0885 0.8213,1.4226 0.334,3.2415 -1.0886,4.0628 v 0 l -122.3965,70.6678 c -1.4225,0.8213 -3.2415,0.3339 -4.0628,-1.0885 -0.8214,-1.4225 -0.334,-3.2416 1.0885,-4.0629 z"
         clip-path="url(#1369136099107-clipPath1)"
         id="path40"
         inkscape:connector-curvature="0"
         style="stroke:none" />
    </g>
    <g
       id="g46"
       style="text-rendering:geometricPrecision">
      <path
         d="m 295.0892,744.86 v 0 -87.3001 c 0,-1.6427 1.3315,-2.9742 2.9741,-2.9742 1.6426,0 2.9742,1.3315 2.9742,2.9742 v 0 87.3001 c 0,1.6426 -1.3316,2.9742 -2.9742,2.9742 -1.6426,0 -2.9741,-1.3316 -2.9741,-2.9742 z"
         clip-path="url(#1369136099107-clipPath1)"
         id="path44"
         inkscape:connector-curvature="0"
         style="stroke:none" />
    </g>
    <g
       id="g50"
       style="text-rendering:geometricPrecision">
      <path
         d="m 215.0219,552.1448 v 0 l 45.3715,26.196 c 1.4225,0.8214 1.9099,2.6403 1.0886,4.0628 -0.8214,1.4226 -2.6403,1.9099 -4.0628,1.0886 v 0 l -45.3716,-26.1961 c -1.4225,-0.8212 -1.9099,-2.6402 -1.0886,-4.0628 0.8213,-1.4224 2.6403,-1.9098 4.0629,-1.0885 z"
         clip-path="url(#1369136099107-clipPath1)"
         id="path48"
         inkscape:connector-curvature="0"
         style="stroke:none" />
    </g>
    <g
       id="g54"
       style="text-rendering:geometricPrecision">
      <path
         d="m 129.2919,504.9987 c 1.0991,1.2207 2.9796,1.3192 4.2003,0.2201 1.2207,-1.0991 1.3193,-2.9796 0.2202,-4.2003 l -22.3885,-24.865 c -1.0992,-1.2206 -2.9797,-1.3192 -4.2004,-0.2201 -1.2207,1.0991 -1.3192,2.9797 -0.2201,4.2004 z m 19.0964,-17.1945 c 1.0991,1.2207 2.9797,1.3192 4.2004,0.2201 1.2207,-1.0991 1.3192,-2.9797 0.2201,-4.2003 l -22.3885,-24.865 c -1.0991,-1.2207 -2.9797,-1.3192 -4.2003,-0.2201 -1.2207,1.0991 -1.3193,2.9796 -0.2202,4.2003 z"
         clip-path="url(#1369136099107-clipPath1)"
         id="path52"
         inkscape:connector-curvature="0"
         style="stroke:none" />
    </g>
    <g
       id="g58"
       style="text-rendering:geometricPrecision">
      <path
         d="m 208.6509,499.1556 v 0 L 242.794,468.413 c 1.2207,-1.0992 3.1012,-1.0006 4.2003,0.2201 1.0991,1.2207 1.0006,3.1012 -0.2201,4.2003 v 0 l -34.1431,30.7426 c -1.2207,1.0991 -3.1013,1.0006 -4.2004,-0.2201 -1.0991,-1.2207 -1.0005,-3.1012 0.2202,-4.2003 z"
         clip-path="url(#1369136099107-clipPath1)"
         id="path56"
         inkscape:connector-curvature="0"
         style="stroke:none" />
    </g>
    <g
       id="g62"
       style="text-rendering:geometricPrecision">
      <path
         d="m 266.4892,385.7482 v 0 l -18.0858,-85.0869 c -0.3415,-1.6067 0.6841,-3.1861 2.2908,-3.5276 1.6067,-0.3415 3.186,0.6841 3.5275,2.2908 v 0 l 18.0858,85.087 c 0.3415,1.6067 -0.6841,3.186 -2.2908,3.5275 -1.6067,0.3416 -3.186,-0.6841 -3.5275,-2.2908 z"
         clip-path="url(#1369136099107-clipPath1)"
         id="path60"
         inkscape:connector-curvature="0"
         style="stroke:none" />
    </g>
    <g
       id="g66"
       style="text-rendering:geometricPrecision">
      <path
         d="m 321.2169,448.3253 v 0 l 94.8145,30.8071 c 1.5622,0.5076 2.4171,2.1855 1.9095,3.7477 -0.5075,1.5622 -2.1854,2.4171 -3.7476,1.9095 v 0 l -94.8145,-30.8071 c -1.5622,-0.5076 -2.4171,-2.1855 -1.9095,-3.7477 0.5076,-1.5622 2.1855,-2.4171 3.7476,-1.9095 z"
         clip-path="url(#1369136099107-clipPath1)"
         id="path64"
         inkscape:connector-curvature="0"
         style="stroke:none" />
    </g>
    <g
       id="g70"
       style="text-rendering:geometricPrecision">
      <path
         d="m 413.1223,479.7508 v 0 l 105.0304,-94.5699 c 1.2207,-1.0991 3.1013,-1.0005 4.2004,0.2201 1.099,1.2207 1.0005,3.1013 -0.2202,4.2004 v 0 l -105.0305,94.5698 c -1.2206,1.0992 -3.1012,1.0006 -4.2003,-0.2201 -1.0991,-1.2207 -1.0005,-3.1012 0.2202,-4.2003 z"
         clip-path="url(#1369136099107-clipPath1)"
         id="path68"
         inkscape:connector-curvature="0"
         style="stroke:none" />
    </g>
    <g
       id="g74"
       style="text-rendering:geometricPrecision">
      <path
         d="m 249.3224,297.8326 v 0 l 105.0305,-94.5698 c 1.2207,-1.0991 3.1013,-1.0006 4.2004,0.2201 1.0991,1.2207 1.0005,3.1013 -0.2202,4.2004 v 0 l -105.0304,94.5698 c -1.2207,1.0991 -3.1013,1.0006 -4.2004,-0.2201 -1.0991,-1.2207 -1.0005,-3.1012 0.2201,-4.2004 z"
         clip-path="url(#1369136099107-clipPath1)"
         id="path72"
         inkscape:connector-curvature="0"
         style="stroke:none" />
    </g>
    <g
       id="g78"
       style="text-rendering:geometricPrecision">
      <path
         d="m 521.0619,384.5625 v 0 l 81.5644,26.502 c 1.5622,0.5075 2.4172,2.1854 1.9096,3.7476 -0.5076,1.5622 -2.1855,2.4171 -3.7477,1.9095 v 0 l -81.5644,-26.5018 c -1.5622,-0.5076 -2.4172,-2.1855 -1.9096,-3.7477 0.5076,-1.5622 2.1855,-2.4171 3.7477,-1.9096 z"
         clip-path="url(#1369136099107-clipPath1)"
         id="path76"
         inkscape:connector-curvature="0"
         style="stroke:none" />
    </g>
    <g
       id="g82"
       style="text-rendering:geometricPrecision">
      <path
         d="m 353.4338,206.0914 v 0 l -17.1175,-80.5319 c -0.3415,-1.6067 0.6841,-3.186 2.2908,-3.5275 1.6067,-0.3416 3.186,0.6841 3.5275,2.2908 v 0 l 17.1176,80.5319 c 0.3415,1.6067 -0.6841,3.186 -2.2908,3.5275 -1.6067,0.3415 -3.186,-0.6841 -3.5276,-2.2908 z"
         clip-path="url(#1369136099107-clipPath1)"
         id="path80"
         inkscape:connector-curvature="0"
         style="stroke:none" />
    </g>
    <g
       font-size="98px"
       transform="translate(143.0886,476.3567)"
       id="g86"
       style="font-size:98px;font-family:'Liberation Sans';text-rendering:geometricPrecision">
      <text
         x="0"
         xml:space="preserve"
         y="92"
         clip-path="url(#1369136099498-clipPath1)"
         id="text84"
         style="stroke:none">P</text>
    </g>
    <g
       font-size="98px"
       transform="translate(15.3248,547.0245)"
       id="g90"
       style="font-size:98px;font-family:'Liberation Sans';text-rendering:geometricPrecision">
      <text
         x="0"
         xml:space="preserve"
         y="92"
         clip-path="url(#1369136099397-clipPath1)"
         id="text88"
         style="stroke:none">O</text>
    </g>
    <g
       font-size="98px"
       transform="translate(262.6961,547.0245)"
       id="g94"
       style="font-size:98px;font-family:'Liberation Sans';text-rendering:geometricPrecision">
      <text
         x="0"
         xml:space="preserve"
         y="92"
         clip-path="url(#1369136099603-clipPath1)"
         id="text92"
         style="stroke:none">NH</text>
    </g>
    <g
       font-size="98px"
       transform="translate(43.1516,371.3263)"
       id="g98"
       style="font-size:98px;font-family:'Liberation Sans';text-rendering:geometricPrecision">
      <text
         x="0"
         xml:space="preserve"
         y="92"
         clip-path="url(#1369136099856-clipPath1)"
         id="text96"
         style="stroke:none">O</text>
    </g>
    <g
       font-size="98px"
       transform="translate(245.33,381.7869)"
       id="g102"
       style="font-size:98px;font-family:'Liberation Sans';text-rendering:geometricPrecision">
      <text
         x="0"
         xml:space="preserve"
         y="92"
         clip-path="url(#1369136099627-clipPath1)"
         id="text100"
         style="stroke:none">N</text>
    </g>
    <g
       font-size="98px"
       transform="translate(607.9408,374.5653)"
       id="g106"
       style="font-size:98px;font-family:'Liberation Sans';text-rendering:geometricPrecision">
      <text
         x="0"
         xml:space="preserve"
         y="92"
         clip-path="url(#1369136099724-clipPath1)"
         id="text104"
         style="stroke:none">Cl</text>
    </g>
    <g
       font-size="98px"
       transform="translate(280.3412,10.729)"
       id="g110"
       style="font-size:98px;font-family:'Liberation Sans';text-rendering:geometricPrecision">
      <text
         x="0"
         xml:space="preserve"
         y="92"
         clip-path="url(#1369136099784-clipPath1)"
         id="text108"
         style="stroke:none">Cl</text>
    </g>
  </g>
</svg>
